<?xml version="1.0" encoding="UTF-8" standalone="no"?>
<!DOCTYPE svg PUBLIC "-//W3C//DTD SVG 1.1//EN" "http://www.w3.org/Graphics/SVG/1.1/DTD/svg11.dtd">
<svg width="100%" height="100%" viewBox="0 0 2001 557" version="1.1" xmlns="http://www.w3.org/2000/svg" xmlns:xlink="http://www.w3.org/1999/xlink" xml:space="preserve" xmlns:serif="http://www.serif.com/" style="fill-rule:evenodd;clip-rule:evenodd;stroke-linecap:round;stroke-linejoin:round;stroke-miterlimit:1.5;">
    <g transform="matrix(1,0,0,1,-100.5,-107.035346)">
        <g id="Catchlight_Wordmark_-Dark-" serif:id="Catchlight_Wordmark_(Dark)" transform="matrix(1,0,0,1,-843,-69.5)">
            <g transform="matrix(1,0,0,1,0,-1)">
                <circle cx="1163" cy="319" r="19" style="fill:rgb(15,14,12);stroke:rgb(15,14,12);stroke-width:1px;"/>
            </g>
            <g transform="matrix(0.719521,0,0,0.719521,244.337715,50.39965)">
                <path d="M1120.541,742.211C1085.745,742.211 1057.472,734.663 1035.725,719.568C1013.977,704.472 997.986,685.283 987.751,662C977.517,638.717 972.4,615.05 972.4,591C972.4,565.414 977.261,542.643 986.984,522.686C996.706,502.729 1009.627,485.842 1025.746,472.026C1041.865,458.21 1059.647,447.72 1079.092,440.556C1098.537,433.392 1117.727,429.81 1136.66,429.81C1150.988,429.81 1164.804,431.729 1178.109,435.567C1191.413,439.404 1202.415,444.65 1211.114,451.302C1219.814,457.954 1224.163,465.374 1224.163,473.561C1224.163,479.702 1222.244,484.947 1218.406,489.297C1214.568,493.646 1209.068,495.821 1201.904,495.821C1194.74,495.821 1188.599,493.518 1183.482,488.913C1178.365,484.307 1174.271,479.446 1171.201,474.329C1165.06,465.63 1157.768,458.594 1149.325,453.221C1140.882,447.848 1128.473,445.161 1112.098,445.161C1080.883,445.161 1057.089,456.547 1040.714,479.318C1024.339,502.089 1016.152,531.897 1016.152,568.74C1016.152,594.837 1020.757,619.272 1029.968,642.043C1039.179,664.814 1053.379,683.236 1072.568,697.308C1091.757,711.38 1116.703,718.416 1147.406,718.416C1160.711,718.416 1174.399,716.497 1188.471,712.659C1202.543,708.822 1215.208,701.785 1226.466,691.551C1228.001,690.528 1229.664,691.04 1231.455,693.086C1233.246,695.133 1233.374,696.668 1231.839,697.692C1214.441,713.555 1196.786,724.941 1178.876,731.849C1160.966,738.757 1141.521,742.211 1120.541,742.211Z" style="fill:rgb(15,14,12);fill-rule:nonzero;stroke:rgb(15,14,12);stroke-width:1.39px;stroke-linecap:butt;stroke-miterlimit:2;"/>
                <path d="M1492.045,737.605C1489.998,738.629 1487.951,739.141 1485.904,739.141C1479.764,739.141 1474.135,733.768 1469.018,723.022C1463.901,712.276 1461.342,696.668 1461.342,676.2L1461.342,528.059C1461.342,496.333 1456.353,474.329 1446.375,462.048C1436.396,449.767 1423.987,443.626 1409.147,443.626C1396.355,443.626 1385.737,446.568 1377.293,452.453C1368.85,458.338 1362.454,465.63 1358.104,474.329C1353.754,483.028 1350.556,491.215 1348.509,498.891C1347.486,504.008 1345.695,510.021 1343.136,516.929C1340.578,523.837 1334.181,527.291 1323.947,527.291C1316.271,527.291 1310.515,524.989 1306.677,520.383C1302.839,515.778 1300.92,510.916 1300.92,505.799C1300.92,497.1 1305.525,488.273 1314.736,479.318C1323.947,470.363 1335.589,462.048 1349.661,454.372C1363.733,446.696 1378.445,440.556 1393.796,435.95C1409.147,431.345 1423.22,429.042 1436.012,429.042C1456.993,429.042 1472.344,435.822 1482.067,449.383C1491.789,462.943 1496.65,481.493 1496.65,505.032L1496.65,650.102C1496.65,668.524 1498.825,681.957 1503.175,690.4C1507.524,698.843 1515.072,703.065 1525.818,703.065C1535.541,703.065 1549.613,699.227 1568.034,691.551C1570.593,690.528 1572.384,691.423 1573.407,694.238C1574.431,697.052 1573.663,698.971 1571.105,699.994L1492.045,737.605ZM1356.185,738.373C1337.252,738.373 1322.796,733.128 1312.817,722.638C1302.839,712.148 1297.85,699.994 1297.85,686.178C1297.85,677.479 1300.025,669.036 1304.374,660.848C1308.724,652.661 1316.399,644.729 1327.401,637.054C1338.403,629.378 1353.627,621.958 1373.072,614.794L1469.018,578.718L1470.553,588.697L1379.98,623.237C1369.234,627.331 1361.046,631.809 1355.418,636.67C1349.789,641.531 1345.951,646.648 1343.904,652.021C1341.857,657.394 1340.834,662.895 1340.834,668.524C1340.834,679.782 1344.544,690.016 1351.963,699.227C1359.383,708.438 1370.257,713.043 1384.585,713.043C1390.214,713.043 1396.099,712.148 1402.239,710.357C1408.38,708.566 1415.8,705.112 1424.499,699.994L1475.926,670.059L1477.461,679.27L1419.893,715.346C1407.101,723.533 1395.843,729.418 1386.12,733C1376.398,736.582 1366.419,738.373 1356.185,738.373Z" style="fill:rgb(15,14,12);fill-rule:nonzero;stroke:rgb(15,14,12);stroke-width:1.39px;stroke-linecap:butt;stroke-miterlimit:2;"/>
                <path d="M1718.478,742.211C1706.197,742.211 1694.556,740.292 1683.554,736.454C1672.552,732.616 1663.725,726.22 1657.073,717.265C1650.42,708.31 1647.094,696.157 1647.094,680.805L1647.094,498.124C1647.094,485.331 1646.327,475.992 1644.791,470.107C1643.256,464.223 1639.674,460.385 1634.045,458.594C1628.417,456.803 1619.462,455.907 1607.181,455.907C1605.645,455.907 1604.878,454.372 1604.878,451.302C1604.878,448.232 1605.645,446.696 1607.181,446.696C1626.626,446.696 1642.361,441.323 1654.386,430.577C1666.411,419.831 1672.424,406.271 1672.424,389.896C1672.424,388.361 1674.343,387.593 1678.181,387.593C1682.019,387.593 1683.938,388.361 1683.938,389.896L1683.938,654.708C1683.938,676.2 1689.183,692.191 1699.673,702.681C1710.163,713.171 1725.642,718.416 1746.111,718.416C1759.927,718.416 1772.08,716.241 1782.57,711.892C1793.06,707.542 1801.632,702.809 1808.284,697.692C1810.331,696.668 1812.122,697.308 1813.657,699.611C1815.192,701.913 1814.936,703.832 1812.889,705.367C1793.956,718.672 1777.325,728.139 1762.997,733.768C1748.669,739.396 1733.83,742.211 1718.478,742.211ZM1789.862,473.561C1769.905,468.444 1750.844,465.246 1732.678,463.967C1714.512,462.687 1695.195,462.048 1674.727,462.048L1674.727,445.929C1694.684,445.929 1714.001,445.161 1732.678,443.626C1751.356,442.091 1771.185,440.3 1792.165,438.253C1793.7,438.253 1794.979,439.916 1796.003,443.242C1797.026,446.568 1797.538,450.79 1797.538,455.907C1797.538,459.489 1796.77,463.455 1795.235,467.805C1793.7,472.154 1791.909,474.073 1789.862,473.561Z" style="fill:rgb(15,14,12);fill-rule:nonzero;stroke:rgb(15,14,12);stroke-width:1.39px;stroke-linecap:butt;stroke-miterlimit:2;"/>
                <path d="M2010.155,742.211C1975.358,742.211 1947.086,734.663 1925.338,719.568C1903.59,704.472 1887.599,685.283 1877.365,662C1867.131,638.717 1862.014,615.05 1862.014,591C1862.014,565.414 1866.875,542.643 1876.598,522.686C1886.32,502.729 1899.241,485.842 1915.36,472.026C1931.479,458.21 1949.261,447.72 1968.706,440.556C1988.151,433.392 2007.34,429.81 2026.274,429.81C2040.602,429.81 2054.418,431.729 2067.723,435.567C2081.027,439.404 2092.029,444.65 2100.728,451.302C2109.427,457.954 2113.777,465.374 2113.777,473.561C2113.777,479.702 2111.858,484.947 2108.02,489.297C2104.182,493.646 2098.681,495.821 2091.517,495.821C2084.353,495.821 2078.213,493.518 2073.096,488.913C2067.978,484.307 2063.885,479.446 2060.814,474.329C2054.674,465.63 2047.382,458.594 2038.939,453.221C2030.495,447.848 2018.086,445.161 2001.712,445.161C1970.497,445.161 1946.702,456.547 1930.328,479.318C1913.953,502.089 1905.765,531.897 1905.765,568.74C1905.765,594.837 1910.371,619.272 1919.582,642.043C1928.792,664.814 1942.992,683.236 1962.182,697.308C1981.371,711.38 2006.317,718.416 2037.02,718.416C2050.324,718.416 2064.013,716.497 2078.085,712.659C2092.157,708.822 2104.822,701.785 2116.079,691.551C2117.615,690.528 2119.278,691.04 2121.069,693.086C2122.86,695.133 2122.988,696.668 2121.452,697.692C2104.054,713.555 2086.4,724.941 2068.49,731.849C2050.58,738.757 2031.135,742.211 2010.155,742.211Z" style="fill:rgb(15,14,12);fill-rule:nonzero;stroke:rgb(15,14,12);stroke-width:1.39px;stroke-linecap:butt;stroke-miterlimit:2;"/>
                <path d="M2166.739,733C2165.204,733 2164.436,731.465 2164.436,728.395C2164.436,725.324 2165.204,723.789 2166.739,723.789C2187.719,723.789 2201.28,720.463 2207.42,713.811C2213.561,707.158 2216.631,692.831 2216.631,670.827L2216.631,272.458C2216.631,254.036 2214.84,240.604 2211.258,232.161C2207.676,223.717 2201.28,219.496 2192.069,219.496C2183.881,219.496 2171.6,223.333 2155.226,231.009C2153.179,232.033 2151.516,231.137 2150.236,228.323C2148.957,225.508 2149.341,223.589 2151.388,222.566L2245.799,176.512L2247.334,176.512C2248.869,176.512 2250.148,177.023 2251.172,178.047C2252.195,179.07 2252.707,180.35 2252.707,181.885L2252.707,670.827C2252.707,692.831 2255.777,707.158 2261.918,713.811C2268.058,720.463 2281.875,723.789 2303.367,723.789C2304.39,723.789 2304.902,725.324 2304.902,728.395C2304.902,731.465 2304.39,733 2303.367,733C2294.156,733 2283.794,732.744 2272.28,732.232C2260.766,731.721 2248.357,731.465 2235.053,731.465C2222.26,731.465 2209.851,731.721 2197.826,732.232C2185.8,732.744 2175.438,733 2166.739,733ZM2373.215,733C2371.68,733 2370.913,731.465 2370.913,728.395C2370.913,725.324 2371.68,723.789 2373.215,723.789C2394.196,723.789 2407.756,720.463 2413.897,713.811C2420.037,707.158 2423.107,692.831 2423.107,670.827L2423.107,545.713C2423.107,484.819 2399.057,454.372 2350.956,454.372C2330.999,454.372 2310.914,460.896 2290.702,473.945C2270.489,486.994 2252.963,504.52 2238.123,526.524L2235.053,517.313C2259.103,485.587 2282.13,462.943 2304.134,449.383C2326.138,435.822 2348.653,429.042 2371.68,429.042C2399.313,429.042 2420.805,436.59 2436.156,451.686C2451.508,466.781 2459.183,490.192 2459.183,521.918L2459.183,670.827C2459.183,692.831 2462.254,707.158 2468.394,713.811C2474.535,720.463 2488.351,723.789 2509.843,723.789C2510.866,723.789 2511.378,725.324 2511.378,728.395C2511.378,731.465 2510.866,733 2509.843,733C2500.632,733 2490.27,732.744 2478.756,732.232C2467.243,731.721 2454.834,731.465 2441.529,731.465C2428.736,731.465 2416.327,731.721 2404.302,732.232C2392.277,732.744 2381.915,733 2373.215,733Z" style="fill:rgb(15,14,12);fill-rule:nonzero;stroke:rgb(15,14,12);stroke-width:1.39px;stroke-linecap:butt;stroke-miterlimit:2;"/>
                <path d="M2595.811,739.908C2583.53,739.908 2575.854,734.407 2572.784,723.405C2569.713,712.404 2570.737,692.831 2575.854,664.686L2653.379,251.734C2656.449,235.359 2654.402,224.869 2647.238,220.263C2640.074,215.658 2624.467,219.24 2600.416,231.009C2598.369,232.033 2596.706,231.009 2595.427,227.939C2594.148,224.869 2594.531,223.078 2596.578,222.566L2690.989,176.512C2693.036,175.488 2695.083,176 2697.13,178.047C2699.177,180.094 2699.944,181.629 2699.433,182.652L2609.627,664.686C2606.045,680.549 2605.661,692.319 2608.476,699.994C2611.29,707.67 2616.023,711.508 2622.676,711.508C2628.305,711.508 2635.724,708.054 2644.935,701.146C2654.146,694.238 2664.38,685.155 2675.638,673.897C2677.685,671.85 2679.732,671.85 2681.779,673.897C2683.825,675.944 2683.825,677.991 2681.779,680.038C2664.892,698.971 2649.669,713.683 2636.108,724.173C2622.548,734.663 2609.115,739.908 2595.811,739.908Z" style="fill:rgb(15,14,12);fill-rule:nonzero;stroke:rgb(15,14,12);stroke-width:1.39px;stroke-linecap:butt;stroke-miterlimit:2;"/>
                <path d="M2791.541,739.908C2780.283,739.908 2772.736,734.791 2768.898,724.557C2765.06,714.322 2765.955,694.366 2771.584,664.686L2803.055,505.032C2809.195,473.817 2804.846,458.21 2790.006,458.21C2783.865,458.21 2775.934,461.28 2766.211,467.421C2756.489,473.561 2745.999,482.516 2734.741,494.286C2733.206,496.333 2731.287,496.205 2728.984,493.902C2726.681,491.599 2726.554,489.68 2728.6,488.145C2745.999,468.7 2761.734,454.116 2775.806,444.394C2789.878,434.671 2803.311,429.81 2816.103,429.81C2828.384,429.81 2836.06,435.311 2839.13,446.313C2842.201,457.314 2840.921,476.887 2835.293,505.032L2804.59,664.686C2801.52,680.549 2801.264,692.319 2803.822,699.994C2806.381,707.67 2810.986,711.508 2817.638,711.508C2823.267,711.508 2830.943,708.438 2840.666,702.297C2850.388,696.157 2860.878,687.202 2872.136,675.432C2874.183,673.385 2876.23,673.513 2878.277,675.816C2880.323,678.119 2880.323,680.038 2878.277,681.573C2861.39,701.018 2845.911,715.602 2831.839,725.324C2817.766,735.047 2804.334,739.908 2791.541,739.908ZM2839.13,336.166C2829.408,336.166 2821.86,333.608 2816.487,328.491C2811.114,323.373 2808.428,315.954 2808.428,306.231C2808.428,297.532 2811.114,290.624 2816.487,285.507C2821.86,280.39 2829.408,277.831 2839.13,277.831C2848.853,277.831 2856.273,280.39 2861.39,285.507C2866.507,290.624 2869.066,297.532 2869.066,306.231C2869.066,326.188 2859.087,336.166 2839.13,336.166Z" style="fill:rgb(15,14,12);fill-rule:nonzero;stroke:rgb(15,14,12);stroke-width:1.39px;stroke-linecap:butt;stroke-miterlimit:2;"/>
                <path d="M2978.061,948.687C2950.428,948.687 2927.657,944.21 2909.747,935.255C2891.837,926.3 2879.044,914.658 2871.368,900.33C2863.693,886.002 2861.646,870.907 2865.228,855.044C2870.857,832.528 2885.185,812.955 2908.212,796.325C2931.239,779.694 2957.336,763.191 2986.504,746.816L2991.877,752.957C2979.084,760.633 2966.163,768.436 2953.115,776.368C2940.066,784.299 2928.808,793.126 2919.342,802.849C2909.875,812.571 2903.862,824.597 2901.304,838.925C2898.745,855.299 2901.687,870.267 2910.131,883.828C2918.574,897.388 2931.751,908.134 2949.661,916.065C2967.571,923.997 2989.062,927.963 3014.136,927.963C3042.792,927.963 3065.052,922.206 3080.915,910.692C3096.778,899.179 3105.221,884.723 3106.245,867.325C3106.757,853.508 3103.047,841.483 3095.115,831.249C3087.184,821.015 3076.821,811.932 3064.028,804C3051.236,796.069 3037.803,788.521 3023.731,781.357C3009.659,774.193 2996.482,766.773 2984.201,759.097C2971.92,751.422 2962.453,742.978 2955.801,733.768C2949.149,724.557 2946.846,713.811 2948.893,701.53C2951.452,690.272 2956.952,679.782 2965.396,670.059C2973.839,660.337 2984.457,649.847 2997.25,638.589L3005.693,644.729C2999.553,648.311 2993.924,653.684 2988.807,660.848C2983.689,668.012 2980.619,675.432 2979.596,683.108C2978.061,693.854 2981.003,703.321 2988.423,711.508C2995.843,719.695 3005.821,727.243 3018.358,734.151C3030.895,741.059 3044.2,748.096 3058.272,755.26C3072.344,762.424 3085.648,770.099 3098.185,778.287C3110.722,786.474 3120.701,795.941 3128.121,806.687C3135.54,817.433 3138.483,830.226 3136.948,845.065C3135.924,862.463 3127.993,879.094 3113.153,894.957C3098.313,910.82 3079.124,923.741 3055.585,933.72C3032.046,943.698 3006.205,948.687 2978.061,948.687ZM3011.834,657.778C2992.389,657.778 2976.398,652.533 2963.861,642.043C2951.324,631.553 2942.88,617.737 2938.531,600.594C2934.181,583.452 2934.309,564.646 2938.915,544.178C2943.008,522.686 2951.324,503.497 2963.861,486.61C2976.398,469.723 2991.493,456.419 3009.147,446.696C3026.801,436.974 3045.607,432.113 3065.564,432.113C3085.52,432.113 3101.511,437.23 3113.537,447.464C3125.562,457.698 3133.621,471.259 3137.715,488.145C3141.809,505.032 3141.553,523.709 3136.948,544.178C3132.342,567.205 3123.515,587.162 3110.466,604.048C3097.418,620.935 3082.194,634.111 3064.796,643.578C3047.398,653.045 3029.744,657.778 3011.834,657.778ZM3031.023,643.962C3046.886,643.962 3061.598,637.31 3075.158,624.005C3088.719,610.701 3097.802,592.279 3102.407,568.74C3105.477,551.342 3105.733,533.176 3103.175,514.243C3100.616,495.309 3094.731,479.062 3085.52,465.502C3076.31,451.941 3063.261,445.161 3046.374,445.161C3030,445.161 3014.904,452.325 3001.088,466.653C2987.271,480.981 2978.316,499.147 2974.223,521.151C2970.641,539.061 2970.385,557.61 2973.455,576.799C2976.525,595.989 2982.922,611.98 2992.644,624.773C3002.367,637.565 3015.16,643.962 3031.023,643.962ZM3093.964,467.421L3093.196,462.048C3108.548,452.837 3124.922,445.417 3142.321,439.788C3159.719,434.159 3175.582,431.345 3189.91,431.345C3192.469,431.345 3193.876,433.264 3194.132,437.102C3194.387,440.94 3193.876,445.161 3192.596,449.767C3191.317,454.372 3189.91,458.338 3188.375,461.664C3186.84,464.99 3185.305,466.141 3183.769,465.118C3172,459.489 3157.8,457.186 3141.169,458.21C3124.539,459.233 3108.803,462.304 3093.964,467.421Z" style="fill:rgb(15,14,12);fill-rule:nonzero;stroke:rgb(15,14,12);stroke-width:1.39px;stroke-linecap:butt;stroke-miterlimit:2;"/>
                <path d="M3234.429,739.141C3227.777,739.141 3223.427,738.757 3221.38,737.989C3219.333,737.222 3218.31,736.07 3218.31,734.535C3218.31,733 3219.717,726.22 3222.532,714.195C3225.346,702.169 3227.777,689.504 3229.824,676.2L3309.651,251.734C3313.233,235.359 3311.058,224.869 3303.127,220.263C3295.195,215.658 3279.204,219.24 3255.153,231.009C3253.107,232.033 3251.444,231.009 3250.164,227.939C3248.885,224.869 3249.269,223.078 3251.316,222.566L3345.727,176.512C3347.774,175.488 3349.82,176 3351.867,178.047C3353.914,180.094 3354.682,181.629 3354.17,182.652L3254.386,728.395C3253.362,735.559 3246.71,739.141 3234.429,739.141ZM3428.624,739.908C3416.343,739.908 3408.795,734.407 3405.981,723.405C3403.167,712.404 3404.318,692.831 3409.435,664.686L3431.695,542.643C3437.323,512.452 3437.835,489.936 3433.23,475.096C3428.624,460.257 3418.134,452.837 3401.759,452.837C3384.873,452.837 3367.091,463.583 3348.413,485.075C3329.736,506.567 3312.082,537.909 3295.451,579.102C3278.82,620.295 3265.132,670.059 3254.386,728.395L3245.943,727.627C3256.689,668.268 3271.144,615.946 3289.31,570.659C3307.476,525.372 3328.073,490.064 3351.1,464.734C3374.127,439.404 3398.177,426.74 3423.251,426.74C3445.255,426.74 3459.583,434.543 3466.235,450.15C3472.887,465.758 3473.143,491.727 3467.003,528.059L3441.673,664.686C3439.114,680.549 3438.986,692.319 3441.289,699.994C3443.592,707.67 3448.069,711.508 3454.722,711.508C3460.862,711.508 3468.538,708.054 3477.749,701.146C3486.96,694.238 3497.194,685.155 3508.452,673.897C3510.498,671.85 3512.545,671.85 3514.592,673.897C3516.639,675.944 3516.639,677.991 3514.592,680.038C3497.706,698.971 3482.482,713.683 3468.922,724.173C3455.361,734.663 3441.929,739.908 3428.624,739.908Z" style="fill:rgb(15,14,12);fill-rule:nonzero;stroke:rgb(15,14,12);stroke-width:1.39px;stroke-linecap:butt;stroke-miterlimit:2;"/>
                <path d="M3618.214,742.211C3609.003,742.211 3600.176,740.292 3591.733,736.454C3583.29,732.616 3577.021,726.22 3572.927,717.265C3568.834,708.31 3568.066,696.157 3570.625,680.805L3604.398,498.124C3607.98,478.678 3608.364,466.781 3605.549,462.432C3602.735,458.082 3593.652,455.907 3578.3,455.907C3576.254,455.907 3575.486,454.372 3575.998,451.302C3576.509,448.232 3577.533,446.696 3579.068,446.696C3595.443,446.696 3609.643,441.323 3621.668,430.577C3633.693,419.831 3641.241,406.271 3644.311,389.896C3644.311,388.361 3646.486,387.593 3650.836,387.593C3655.185,387.593 3657.104,388.361 3656.593,389.896L3609.003,654.708C3604.91,676.2 3605.677,691.935 3611.306,701.913C3616.935,711.892 3627.681,716.881 3643.544,716.881C3659.919,716.881 3674.119,713.171 3686.144,705.751C3698.169,698.331 3709.555,690.016 3720.301,680.805C3721.324,679.782 3722.859,680.294 3724.906,682.34C3726.953,684.387 3727.465,685.922 3726.441,686.946C3703.414,706.903 3683.33,721.103 3666.187,729.546C3649.045,737.989 3633.054,742.211 3618.214,742.211ZM3727.209,469.723C3725.674,469.723 3719.789,469.084 3709.555,467.805C3699.321,466.525 3687.423,465.246 3673.863,463.967C3660.302,462.687 3647.382,462.048 3635.101,462.048L3636.636,445.161C3648.405,445.161 3662.221,444.65 3678.085,443.626C3693.948,442.603 3708.531,441.707 3721.836,440.94C3735.141,440.172 3743.328,439.788 3746.398,439.788C3748.445,439.788 3749.98,440.3 3751.004,441.323C3752.027,442.347 3752.283,443.882 3751.771,445.929C3750.748,450.023 3747.678,455.012 3742.56,460.896C3737.443,466.781 3732.326,469.723 3727.209,469.723Z" style="fill:rgb(15,14,12);fill-rule:nonzero;stroke:rgb(15,14,12);stroke-width:1.39px;stroke-linecap:butt;stroke-miterlimit:2;"/>
            </g>
        </g>
    </g>
</svg>
