<?xml version="1.0" encoding="UTF-8" standalone="no"?>
<!DOCTYPE svg PUBLIC "-//W3C//DTD SVG 1.1//EN" "http://www.w3.org/Graphics/SVG/1.1/DTD/svg11.dtd">
<svg width="100%" height="100%" viewBox="0 0 1336 1336" version="1.1" xmlns="http://www.w3.org/2000/svg" xmlns:xlink="http://www.w3.org/1999/xlink" xml:space="preserve" xmlns:serif="http://www.serif.com/" style="fill-rule:evenodd;clip-rule:evenodd;stroke-linecap:round;stroke-linejoin:round;stroke-miterlimit:1.5;">
    <g transform="matrix(1,0,0,1,-2562.641644,-107.035346)">
        <g transform="matrix(1,0,0,1,595.141644,-1065.464654)">
            <g>
                <rect x="1968" y="1173" width="1335" height="1335" style="fill:rgb(15,14,12);stroke:rgb(15,14,12);stroke-width:1px;"/>
                <g transform="matrix(1.79677,0,0,1.79677,-2550.876178,-1698.238223)">
                    <circle cx="2886.5" cy="1969.5" r="371.5" style="fill:rgb(39,38,36);stroke:rgb(39,38,36);stroke-width:0.56px;"/>
                </g>
                <g transform="matrix(1.678683,0,0,1.678683,-2324.170063,-1834.137931)">
                    <circle cx="2954.5" cy="2189" r="319" style="fill:rgb(51,50,48);stroke:rgb(51,50,48);stroke-width:0.6px;"/>
                </g>
                <g transform="matrix(1.26489,0,0,1.26489,-1101.618339,-928.344828)">
                    <circle cx="2954.5" cy="2189" r="319" style="fill:rgb(63,62,61);stroke:rgb(63,62,61);stroke-width:0.79px;"/>
                </g>
                <g transform="matrix(0.851097,0,0,0.851097,120.933386,-22.551724)">
                    <circle cx="2954.5" cy="2189" r="319" style="fill:rgb(75,74,73);stroke:rgb(75,74,73);stroke-width:1.17px;"/>
                </g>
            </g>
            <g transform="matrix(1.682436,0,0,1.682436,103.805831,-1574.963801)">
                <path d="M1445.608,2256.092C1419.563,2256.092 1398.014,2250.046 1380.96,2237.954C1363.907,2225.862 1351.195,2209.893 1342.823,2190.05C1334.452,2170.206 1329.646,2148.502 1328.405,2124.937C1327.165,2101.373 1329.025,2078.428 1333.986,2056.104C1342.668,2016.416 1357.551,1983.085 1378.635,1956.11C1399.719,1929.134 1423.904,1908.515 1451.189,1894.253C1478.474,1879.99 1505.139,1872.859 1531.184,1872.859C1546.067,1872.859 1559.71,1875.184 1572.112,1879.835C1584.515,1884.486 1594.127,1890.842 1600.948,1898.904C1607.769,1906.965 1610.56,1915.957 1609.319,1925.879C1608.699,1932.7 1606.374,1938.901 1602.343,1944.482C1598.312,1950.063 1591.956,1952.854 1583.274,1952.854C1576.453,1952.854 1570.407,1950.528 1565.136,1945.878C1559.865,1941.227 1555.679,1934.56 1552.579,1925.879C1550.718,1919.057 1545.757,1911.616 1537.696,1903.554C1529.634,1895.493 1517.232,1891.462 1500.489,1891.462C1478.164,1891.462 1459.096,1897.818 1443.282,1910.531C1427.469,1923.243 1414.757,1939.831 1405.145,1960.295C1395.533,1980.759 1388.247,2003.394 1383.286,2028.198C1377.085,2062.305 1376,2094.551 1380.03,2124.937C1384.061,2155.323 1394.293,2179.973 1410.726,2198.886C1427.159,2217.8 1450.259,2227.257 1480.025,2227.257C1502.969,2227.257 1522.503,2222.451 1538.626,2212.839C1554.749,2203.227 1569.632,2192.84 1583.274,2181.678C1585.135,2180.438 1587.305,2181.058 1589.786,2183.538C1592.266,2186.019 1592.576,2188.189 1590.716,2190.05C1564.671,2212.994 1539.711,2229.737 1515.836,2240.279C1491.962,2250.821 1468.552,2256.092 1445.608,2256.092Z" style="fill:rgb(245,237,216);stroke:rgb(245,216,217);stroke-width:0.59px;stroke-linecap:butt;stroke-miterlimit:2;"/>
            </g>
            <g>
                <g transform="matrix(1.103774,0,0,1.103774,1508.542453,-515.641509)">
                    <circle cx="1300.5" cy="1813" r="53" style="fill:rgb(237,217,163);stroke:rgb(237,217,163);stroke-width:0.91px;"/>
                </g>
                <g transform="matrix(0.990566,0,0,0.990566,1655.768868,-310.396226)">
                    <circle cx="1300.5" cy="1813" r="53" style="fill:rgb(254,252,245);stroke:rgb(254,252,245);stroke-width:1.01px;"/>
                </g>
            </g>
        </g>
    </g>
</svg>
