<?xml version="1.0" encoding="UTF-8" standalone="no"?><!DOCTYPE svg PUBLIC "-//W3C//DTD SVG 1.1//EN" "http://www.w3.org/Graphics/SVG/1.1/DTD/svg11.dtd"><svg width="100%" height="100%" viewBox="0 0 1336 1336" version="1.1" xmlns="http://www.w3.org/2000/svg" xmlns:xlink="http://www.w3.org/1999/xlink" xml:space="preserve" xmlns:serif="http://www.serif.com/" style="fill-rule:evenodd;clip-rule:evenodd;stroke-linecap:round;stroke-linejoin:round;stroke-miterlimit:1.5;"><g id="Catchlight_Icon_-Dark-" serif:id="Catchlight_Icon_(Dark)"><g><rect x="0.5" y="0.5" width="1335" height="1335" style="fill:#0f0e0c;stroke:#0f0e0c;stroke-width:1px;"/><circle cx="668" cy="668" r="667.5" style="fill:#141210;stroke:#141210;stroke-width:1px;"/><circle cx="668" cy="668" r="535.5" style="fill:#1a1814;stroke:#1a1814;stroke-width:1px;"/><circle cx="668" cy="668" r="403.5" style="fill:#211f18;stroke:#211f18;stroke-width:1px;"/><circle cx="668" cy="668" r="271.5" style="fill:#2a2720;stroke:#2a2720;stroke-width:1px;"/></g><path d="M568.448,1048.266c-43.819,0 -80.074,-10.172 -108.765,-30.517c-28.691,-20.345 -50.079,-47.21 -64.164,-80.596c-14.085,-33.386 -22.17,-69.902 -24.257,-109.548c-2.087,-39.646 1.043,-78.248 9.39,-115.808c14.606,-66.772 39.646,-122.85 75.118,-168.234c35.473,-45.384 76.162,-80.074 122.067,-104.07c45.906,-23.996 90.768,-35.994 134.587,-35.994c25.039,0 47.992,3.912 68.859,11.737c20.866,7.825 37.038,18.519 48.514,32.082c11.476,13.563 16.171,28.691 14.085,45.384c-1.043,11.476 -4.956,21.91 -11.737,31.299c-6.782,9.39 -17.475,14.085 -32.082,14.085c-11.476,0 -21.649,-3.912 -30.517,-11.737c-8.868,-7.825 -15.91,-19.04 -21.127,-33.647c-3.13,-11.476 -11.476,-23.996 -25.039,-37.559c-13.563,-13.563 -34.429,-20.345 -62.599,-20.345c-37.559,0 -69.641,10.694 -96.245,32.082c-26.604,21.388 -47.992,49.296 -64.164,83.726c-16.171,34.429 -28.43,72.51 -36.777,114.243c-10.433,57.382 -12.259,111.634 -5.477,162.757c6.782,51.122 23.996,92.594 51.644,124.415c27.648,31.821 66.511,47.731 116.59,47.731c38.603,0 71.467,-8.086 98.593,-24.257c27.126,-16.171 52.166,-33.647 75.118,-52.426c3.13,-2.087 6.782,-1.043 10.955,3.13c4.173,4.173 4.695,7.825 1.565,10.955c-43.819,38.603 -85.812,66.772 -125.98,84.508c-40.167,17.736 -79.552,26.604 -118.155,26.604Z" style="fill:#f5edd8;fill-rule:nonzero;stroke:#f5d8d9;stroke-width:1px;stroke-linecap:butt;stroke-miterlimit:2;"/><g><circle cx="976.5" cy="313" r="58.5" style="fill:#edd9a3;stroke:#edd9a3;stroke-width:1px;"/><circle cx="976.5" cy="313" r="52.5" style="fill:#fefcf5;stroke:#fefcf5;stroke-width:1px;"/></g></g></svg>