<?xml version="1.0" encoding="UTF-8"?>
<svg xmlns="http://www.w3.org/2000/svg" width="3300" height="2200" viewBox="0 0 3300 2200">
  <!--CatchlightSymbol: artwork 2.30x cap-height, letter centred on midpoint (owner 2026-06-30).-->
  <g id="Notes"/>
  <g id="Guides">
    <line id="Capline-S" x1="0" y1="950.0" x2="3300.0" y2="950.0" stroke="#27AAE1" stroke-width="0.5" opacity="0.5"/>
    <line id="Baseline-S" x1="0" y1="1500.0" x2="3300.0" y2="1500.0" stroke="#27AAE1" stroke-width="0.5" opacity="0.5"/>
    <line id="Capline-M" x1="0" y1="950.0" x2="3300.0" y2="950.0" stroke="#27AAE1" stroke-width="0.5" opacity="0.5"/>
    <line id="Baseline-M" x1="0" y1="1500.0" x2="3300.0" y2="1500.0" stroke="#27AAE1" stroke-width="0.5" opacity="0.5"/>
    <line id="Capline-L" x1="0" y1="950.0" x2="3300.0" y2="950.0" stroke="#27AAE1" stroke-width="0.5" opacity="0.5"/>
    <line id="Baseline-L" x1="0" y1="1500.0" x2="3300.0" y2="1500.0" stroke="#27AAE1" stroke-width="0.5" opacity="0.5"/>
  </g>
  <g id="Symbols">
    <g id="Ultralight-S">
      <g transform="matrix(1.60667,0,0,1.60667,1122.209,480.496)">
        <path d="M198.312,785.766C154.493,785.766 118.238,775.594 89.547,755.249C60.856,734.905 39.468,708.04 25.383,674.654C11.298,641.268 3.213,604.752 1.126,565.106C-0.961,525.46 2.169,486.858 10.516,449.298C25.122,382.526 50.162,326.449 85.634,281.065C121.107,235.68 161.796,200.99 207.702,176.994C253.607,152.998 298.47,141 342.289,141C367.328,141 390.281,144.912 411.147,152.737C432.013,160.562 448.185,171.256 459.661,184.819C471.138,198.382 475.832,213.51 473.746,230.203C472.703,241.68 468.79,252.113 462.009,261.502C455.227,270.892 444.533,275.587 429.927,275.587C418.45,275.587 408.278,271.675 399.41,263.85C390.542,256.025 383.499,244.809 378.283,230.203C375.153,218.727 366.806,206.207 353.243,192.644C339.68,179.081 318.814,172.299 290.645,172.299C253.086,172.299 221.004,182.993 194.399,204.381C167.795,225.769 146.407,253.678 130.236,288.107C114.064,322.536 101.805,360.617 93.459,402.349C83.026,459.732 81.2,513.984 87.982,565.106C94.763,616.228 111.978,657.7 139.626,689.521C167.273,721.342 206.137,737.252 256.216,737.252C294.818,737.252 327.682,729.167 354.808,712.995C381.934,696.824 406.974,679.348 429.927,660.569C433.057,658.482 436.708,659.526 440.882,663.699C445.055,667.872 445.576,671.524 442.447,674.654C398.627,713.256 356.634,741.425 316.467,759.162C276.299,776.898 236.914,785.766 198.312,785.766Z"/>
        <path d="M556.364,50.5 a50.0,50.0 0 1,0 100.0,0 a50.0,50.0 0 1,0 -100.0,0 z"/>
      </g>
    </g>
    <g id="Ultralight-M">
      <g transform="matrix(1.60667,0,0,1.60667,1122.209,480.496)">
        <path d="M198.312,785.766C154.493,785.766 118.238,775.594 89.547,755.249C60.856,734.905 39.468,708.04 25.383,674.654C11.298,641.268 3.213,604.752 1.126,565.106C-0.961,525.46 2.169,486.858 10.516,449.298C25.122,382.526 50.162,326.449 85.634,281.065C121.107,235.68 161.796,200.99 207.702,176.994C253.607,152.998 298.47,141 342.289,141C367.328,141 390.281,144.912 411.147,152.737C432.013,160.562 448.185,171.256 459.661,184.819C471.138,198.382 475.832,213.51 473.746,230.203C472.703,241.68 468.79,252.113 462.009,261.502C455.227,270.892 444.533,275.587 429.927,275.587C418.45,275.587 408.278,271.675 399.41,263.85C390.542,256.025 383.499,244.809 378.283,230.203C375.153,218.727 366.806,206.207 353.243,192.644C339.68,179.081 318.814,172.299 290.645,172.299C253.086,172.299 221.004,182.993 194.399,204.381C167.795,225.769 146.407,253.678 130.236,288.107C114.064,322.536 101.805,360.617 93.459,402.349C83.026,459.732 81.2,513.984 87.982,565.106C94.763,616.228 111.978,657.7 139.626,689.521C167.273,721.342 206.137,737.252 256.216,737.252C294.818,737.252 327.682,729.167 354.808,712.995C381.934,696.824 406.974,679.348 429.927,660.569C433.057,658.482 436.708,659.526 440.882,663.699C445.055,667.872 445.576,671.524 442.447,674.654C398.627,713.256 356.634,741.425 316.467,759.162C276.299,776.898 236.914,785.766 198.312,785.766Z"/>
        <path d="M556.364,50.5 a50.0,50.0 0 1,0 100.0,0 a50.0,50.0 0 1,0 -100.0,0 z"/>
      </g>
    </g>
    <g id="Ultralight-L">
      <g transform="matrix(1.60667,0,0,1.60667,1122.209,480.496)">
        <path d="M198.312,785.766C154.493,785.766 118.238,775.594 89.547,755.249C60.856,734.905 39.468,708.04 25.383,674.654C11.298,641.268 3.213,604.752 1.126,565.106C-0.961,525.46 2.169,486.858 10.516,449.298C25.122,382.526 50.162,326.449 85.634,281.065C121.107,235.68 161.796,200.99 207.702,176.994C253.607,152.998 298.47,141 342.289,141C367.328,141 390.281,144.912 411.147,152.737C432.013,160.562 448.185,171.256 459.661,184.819C471.138,198.382 475.832,213.51 473.746,230.203C472.703,241.68 468.79,252.113 462.009,261.502C455.227,270.892 444.533,275.587 429.927,275.587C418.45,275.587 408.278,271.675 399.41,263.85C390.542,256.025 383.499,244.809 378.283,230.203C375.153,218.727 366.806,206.207 353.243,192.644C339.68,179.081 318.814,172.299 290.645,172.299C253.086,172.299 221.004,182.993 194.399,204.381C167.795,225.769 146.407,253.678 130.236,288.107C114.064,322.536 101.805,360.617 93.459,402.349C83.026,459.732 81.2,513.984 87.982,565.106C94.763,616.228 111.978,657.7 139.626,689.521C167.273,721.342 206.137,737.252 256.216,737.252C294.818,737.252 327.682,729.167 354.808,712.995C381.934,696.824 406.974,679.348 429.927,660.569C433.057,658.482 436.708,659.526 440.882,663.699C445.055,667.872 445.576,671.524 442.447,674.654C398.627,713.256 356.634,741.425 316.467,759.162C276.299,776.898 236.914,785.766 198.312,785.766Z"/>
        <path d="M556.364,50.5 a50.0,50.0 0 1,0 100.0,0 a50.0,50.0 0 1,0 -100.0,0 z"/>
      </g>
    </g>
    <g id="Regular-S">
      <g transform="matrix(1.60667,0,0,1.60667,1122.209,480.496)">
        <path d="M198.312,785.766C154.493,785.766 118.238,775.594 89.547,755.249C60.856,734.905 39.468,708.04 25.383,674.654C11.298,641.268 3.213,604.752 1.126,565.106C-0.961,525.46 2.169,486.858 10.516,449.298C25.122,382.526 50.162,326.449 85.634,281.065C121.107,235.68 161.796,200.99 207.702,176.994C253.607,152.998 298.47,141 342.289,141C367.328,141 390.281,144.912 411.147,152.737C432.013,160.562 448.185,171.256 459.661,184.819C471.138,198.382 475.832,213.51 473.746,230.203C472.703,241.68 468.79,252.113 462.009,261.502C455.227,270.892 444.533,275.587 429.927,275.587C418.45,275.587 408.278,271.675 399.41,263.85C390.542,256.025 383.499,244.809 378.283,230.203C375.153,218.727 366.806,206.207 353.243,192.644C339.68,179.081 318.814,172.299 290.645,172.299C253.086,172.299 221.004,182.993 194.399,204.381C167.795,225.769 146.407,253.678 130.236,288.107C114.064,322.536 101.805,360.617 93.459,402.349C83.026,459.732 81.2,513.984 87.982,565.106C94.763,616.228 111.978,657.7 139.626,689.521C167.273,721.342 206.137,737.252 256.216,737.252C294.818,737.252 327.682,729.167 354.808,712.995C381.934,696.824 406.974,679.348 429.927,660.569C433.057,658.482 436.708,659.526 440.882,663.699C445.055,667.872 445.576,671.524 442.447,674.654C398.627,713.256 356.634,741.425 316.467,759.162C276.299,776.898 236.914,785.766 198.312,785.766Z"/>
        <path d="M556.364,50.5 a50.0,50.0 0 1,0 100.0,0 a50.0,50.0 0 1,0 -100.0,0 z"/>
      </g>
    </g>
    <g id="Regular-M">
      <g transform="matrix(1.60667,0,0,1.60667,1122.209,480.496)">
        <path d="M198.312,785.766C154.493,785.766 118.238,775.594 89.547,755.249C60.856,734.905 39.468,708.04 25.383,674.654C11.298,641.268 3.213,604.752 1.126,565.106C-0.961,525.46 2.169,486.858 10.516,449.298C25.122,382.526 50.162,326.449 85.634,281.065C121.107,235.68 161.796,200.99 207.702,176.994C253.607,152.998 298.47,141 342.289,141C367.328,141 390.281,144.912 411.147,152.737C432.013,160.562 448.185,171.256 459.661,184.819C471.138,198.382 475.832,213.51 473.746,230.203C472.703,241.68 468.79,252.113 462.009,261.502C455.227,270.892 444.533,275.587 429.927,275.587C418.45,275.587 408.278,271.675 399.41,263.85C390.542,256.025 383.499,244.809 378.283,230.203C375.153,218.727 366.806,206.207 353.243,192.644C339.68,179.081 318.814,172.299 290.645,172.299C253.086,172.299 221.004,182.993 194.399,204.381C167.795,225.769 146.407,253.678 130.236,288.107C114.064,322.536 101.805,360.617 93.459,402.349C83.026,459.732 81.2,513.984 87.982,565.106C94.763,616.228 111.978,657.7 139.626,689.521C167.273,721.342 206.137,737.252 256.216,737.252C294.818,737.252 327.682,729.167 354.808,712.995C381.934,696.824 406.974,679.348 429.927,660.569C433.057,658.482 436.708,659.526 440.882,663.699C445.055,667.872 445.576,671.524 442.447,674.654C398.627,713.256 356.634,741.425 316.467,759.162C276.299,776.898 236.914,785.766 198.312,785.766Z"/>
        <path d="M556.364,50.5 a50.0,50.0 0 1,0 100.0,0 a50.0,50.0 0 1,0 -100.0,0 z"/>
      </g>
    </g>
    <g id="Regular-L">
      <g transform="matrix(1.60667,0,0,1.60667,1122.209,480.496)">
        <path d="M198.312,785.766C154.493,785.766 118.238,775.594 89.547,755.249C60.856,734.905 39.468,708.04 25.383,674.654C11.298,641.268 3.213,604.752 1.126,565.106C-0.961,525.46 2.169,486.858 10.516,449.298C25.122,382.526 50.162,326.449 85.634,281.065C121.107,235.68 161.796,200.99 207.702,176.994C253.607,152.998 298.47,141 342.289,141C367.328,141 390.281,144.912 411.147,152.737C432.013,160.562 448.185,171.256 459.661,184.819C471.138,198.382 475.832,213.51 473.746,230.203C472.703,241.68 468.79,252.113 462.009,261.502C455.227,270.892 444.533,275.587 429.927,275.587C418.45,275.587 408.278,271.675 399.41,263.85C390.542,256.025 383.499,244.809 378.283,230.203C375.153,218.727 366.806,206.207 353.243,192.644C339.68,179.081 318.814,172.299 290.645,172.299C253.086,172.299 221.004,182.993 194.399,204.381C167.795,225.769 146.407,253.678 130.236,288.107C114.064,322.536 101.805,360.617 93.459,402.349C83.026,459.732 81.2,513.984 87.982,565.106C94.763,616.228 111.978,657.7 139.626,689.521C167.273,721.342 206.137,737.252 256.216,737.252C294.818,737.252 327.682,729.167 354.808,712.995C381.934,696.824 406.974,679.348 429.927,660.569C433.057,658.482 436.708,659.526 440.882,663.699C445.055,667.872 445.576,671.524 442.447,674.654C398.627,713.256 356.634,741.425 316.467,759.162C276.299,776.898 236.914,785.766 198.312,785.766Z"/>
        <path d="M556.364,50.5 a50.0,50.0 0 1,0 100.0,0 a50.0,50.0 0 1,0 -100.0,0 z"/>
      </g>
    </g>
    <g id="Black-S">
      <g transform="matrix(1.60667,0,0,1.60667,1122.209,480.496)">
        <path d="M198.312,785.766C154.493,785.766 118.238,775.594 89.547,755.249C60.856,734.905 39.468,708.04 25.383,674.654C11.298,641.268 3.213,604.752 1.126,565.106C-0.961,525.46 2.169,486.858 10.516,449.298C25.122,382.526 50.162,326.449 85.634,281.065C121.107,235.68 161.796,200.99 207.702,176.994C253.607,152.998 298.47,141 342.289,141C367.328,141 390.281,144.912 411.147,152.737C432.013,160.562 448.185,171.256 459.661,184.819C471.138,198.382 475.832,213.51 473.746,230.203C472.703,241.68 468.79,252.113 462.009,261.502C455.227,270.892 444.533,275.587 429.927,275.587C418.45,275.587 408.278,271.675 399.41,263.85C390.542,256.025 383.499,244.809 378.283,230.203C375.153,218.727 366.806,206.207 353.243,192.644C339.68,179.081 318.814,172.299 290.645,172.299C253.086,172.299 221.004,182.993 194.399,204.381C167.795,225.769 146.407,253.678 130.236,288.107C114.064,322.536 101.805,360.617 93.459,402.349C83.026,459.732 81.2,513.984 87.982,565.106C94.763,616.228 111.978,657.7 139.626,689.521C167.273,721.342 206.137,737.252 256.216,737.252C294.818,737.252 327.682,729.167 354.808,712.995C381.934,696.824 406.974,679.348 429.927,660.569C433.057,658.482 436.708,659.526 440.882,663.699C445.055,667.872 445.576,671.524 442.447,674.654C398.627,713.256 356.634,741.425 316.467,759.162C276.299,776.898 236.914,785.766 198.312,785.766Z"/>
        <path d="M556.364,50.5 a50.0,50.0 0 1,0 100.0,0 a50.0,50.0 0 1,0 -100.0,0 z"/>
      </g>
    </g>
    <g id="Black-M">
      <g transform="matrix(1.60667,0,0,1.60667,1122.209,480.496)">
        <path d="M198.312,785.766C154.493,785.766 118.238,775.594 89.547,755.249C60.856,734.905 39.468,708.04 25.383,674.654C11.298,641.268 3.213,604.752 1.126,565.106C-0.961,525.46 2.169,486.858 10.516,449.298C25.122,382.526 50.162,326.449 85.634,281.065C121.107,235.68 161.796,200.99 207.702,176.994C253.607,152.998 298.47,141 342.289,141C367.328,141 390.281,144.912 411.147,152.737C432.013,160.562 448.185,171.256 459.661,184.819C471.138,198.382 475.832,213.51 473.746,230.203C472.703,241.68 468.79,252.113 462.009,261.502C455.227,270.892 444.533,275.587 429.927,275.587C418.45,275.587 408.278,271.675 399.41,263.85C390.542,256.025 383.499,244.809 378.283,230.203C375.153,218.727 366.806,206.207 353.243,192.644C339.68,179.081 318.814,172.299 290.645,172.299C253.086,172.299 221.004,182.993 194.399,204.381C167.795,225.769 146.407,253.678 130.236,288.107C114.064,322.536 101.805,360.617 93.459,402.349C83.026,459.732 81.2,513.984 87.982,565.106C94.763,616.228 111.978,657.7 139.626,689.521C167.273,721.342 206.137,737.252 256.216,737.252C294.818,737.252 327.682,729.167 354.808,712.995C381.934,696.824 406.974,679.348 429.927,660.569C433.057,658.482 436.708,659.526 440.882,663.699C445.055,667.872 445.576,671.524 442.447,674.654C398.627,713.256 356.634,741.425 316.467,759.162C276.299,776.898 236.914,785.766 198.312,785.766Z"/>
        <path d="M556.364,50.5 a50.0,50.0 0 1,0 100.0,0 a50.0,50.0 0 1,0 -100.0,0 z"/>
      </g>
    </g>
    <g id="Black-L">
      <g transform="matrix(1.60667,0,0,1.60667,1122.209,480.496)">
        <path d="M198.312,785.766C154.493,785.766 118.238,775.594 89.547,755.249C60.856,734.905 39.468,708.04 25.383,674.654C11.298,641.268 3.213,604.752 1.126,565.106C-0.961,525.46 2.169,486.858 10.516,449.298C25.122,382.526 50.162,326.449 85.634,281.065C121.107,235.68 161.796,200.99 207.702,176.994C253.607,152.998 298.47,141 342.289,141C367.328,141 390.281,144.912 411.147,152.737C432.013,160.562 448.185,171.256 459.661,184.819C471.138,198.382 475.832,213.51 473.746,230.203C472.703,241.68 468.79,252.113 462.009,261.502C455.227,270.892 444.533,275.587 429.927,275.587C418.45,275.587 408.278,271.675 399.41,263.85C390.542,256.025 383.499,244.809 378.283,230.203C375.153,218.727 366.806,206.207 353.243,192.644C339.68,179.081 318.814,172.299 290.645,172.299C253.086,172.299 221.004,182.993 194.399,204.381C167.795,225.769 146.407,253.678 130.236,288.107C114.064,322.536 101.805,360.617 93.459,402.349C83.026,459.732 81.2,513.984 87.982,565.106C94.763,616.228 111.978,657.7 139.626,689.521C167.273,721.342 206.137,737.252 256.216,737.252C294.818,737.252 327.682,729.167 354.808,712.995C381.934,696.824 406.974,679.348 429.927,660.569C433.057,658.482 436.708,659.526 440.882,663.699C445.055,667.872 445.576,671.524 442.447,674.654C398.627,713.256 356.634,741.425 316.467,759.162C276.299,776.898 236.914,785.766 198.312,785.766Z"/>
        <path d="M556.364,50.5 a50.0,50.0 0 1,0 100.0,0 a50.0,50.0 0 1,0 -100.0,0 z"/>
      </g>
    </g>
  </g>
</svg>
