<?xml version="1.0" encoding="UTF-8"?>
<svg xmlns="http://www.w3.org/2000/svg" width="3300" height="2200" viewBox="0 0 3300 2200">
  <!--ObieSymbol: letter centred on the cap-band midpoint so the Control glyph sits centred, not high (owner 2026-06-30).-->
  <g id="Notes"/>
  <g id="Guides">
    <line id="Capline-S" x1="0" y1="950.0" x2="3300.0" y2="950.0" stroke="#27AAE1" stroke-width="0.5" opacity="0.5"/>
    <line id="Baseline-S" x1="0" y1="1500.0" x2="3300.0" y2="1500.0" stroke="#27AAE1" stroke-width="0.5" opacity="0.5"/>
    <line id="Capline-M" x1="0" y1="950.0" x2="3300.0" y2="950.0" stroke="#27AAE1" stroke-width="0.5" opacity="0.5"/>
    <line id="Baseline-M" x1="0" y1="1500.0" x2="3300.0" y2="1500.0" stroke="#27AAE1" stroke-width="0.5" opacity="0.5"/>
    <line id="Capline-L" x1="0" y1="950.0" x2="3300.0" y2="950.0" stroke="#27AAE1" stroke-width="0.5" opacity="0.5"/>
    <line id="Baseline-L" x1="0" y1="1500.0" x2="3300.0" y2="1500.0" stroke="#27AAE1" stroke-width="0.5" opacity="0.5"/>
  </g>
  <g id="Symbols">
    <g id="Ultralight-S">
      <g transform="matrix(3.49781,0,0,3.49781,1321.206,827.740)">
        <path d="M68.606,226.648C51.814,226.648 37.851,221.629 26.717,211.59C15.583,201.551 7.917,187.953 3.719,170.796C-0.48,153.638 -0.571,134.473 3.445,113.3C7.46,92.127 15.035,73.054 26.169,56.079C37.303,39.104 50.81,25.597 66.69,15.558C82.569,5.519 99.453,0.5 117.34,0.5C135.958,0.5 150.925,5.702 162.241,16.106C173.558,26.51 181.041,40.29 184.692,57.448C188.342,74.605 188.16,93.223 184.144,113.3C179.764,135.933 171.55,155.829 159.503,172.986C147.457,190.143 133.402,203.376 117.34,212.685C101.278,221.994 85.033,226.648 68.606,226.648ZM87.771,212.959C103.833,212.959 118.618,206.388 132.125,193.246C145.632,180.104 154.575,161.487 158.956,137.394C161.511,124.617 162.333,111.11 161.42,96.873C160.507,82.636 157.769,69.221 153.206,56.626C148.643,44.032 142.072,33.72 133.494,25.688C124.915,17.657 114.237,13.642 101.461,13.642C85.033,13.642 69.975,20.578 56.286,34.45C42.596,48.321 33.379,66.756 28.633,89.755C25.713,103.261 24.8,117.133 25.895,131.37C26.99,145.607 30.002,158.932 34.93,171.343C39.858,183.755 46.794,193.794 55.738,201.46C64.682,209.126 75.359,212.959 87.771,212.959Z"/>
        <path d="M102.5,67.59 a19.0,19.0 0 1,0 38.0,0 a19.0,19.0 0 1,0 -38.0,0 z"/>
      </g>
    </g>
    <g id="Ultralight-M">
      <g transform="matrix(3.49781,0,0,3.49781,1321.206,827.740)">
        <path d="M68.606,226.648C51.814,226.648 37.851,221.629 26.717,211.59C15.583,201.551 7.917,187.953 3.719,170.796C-0.48,153.638 -0.571,134.473 3.445,113.3C7.46,92.127 15.035,73.054 26.169,56.079C37.303,39.104 50.81,25.597 66.69,15.558C82.569,5.519 99.453,0.5 117.34,0.5C135.958,0.5 150.925,5.702 162.241,16.106C173.558,26.51 181.041,40.29 184.692,57.448C188.342,74.605 188.16,93.223 184.144,113.3C179.764,135.933 171.55,155.829 159.503,172.986C147.457,190.143 133.402,203.376 117.34,212.685C101.278,221.994 85.033,226.648 68.606,226.648ZM87.771,212.959C103.833,212.959 118.618,206.388 132.125,193.246C145.632,180.104 154.575,161.487 158.956,137.394C161.511,124.617 162.333,111.11 161.42,96.873C160.507,82.636 157.769,69.221 153.206,56.626C148.643,44.032 142.072,33.72 133.494,25.688C124.915,17.657 114.237,13.642 101.461,13.642C85.033,13.642 69.975,20.578 56.286,34.45C42.596,48.321 33.379,66.756 28.633,89.755C25.713,103.261 24.8,117.133 25.895,131.37C26.99,145.607 30.002,158.932 34.93,171.343C39.858,183.755 46.794,193.794 55.738,201.46C64.682,209.126 75.359,212.959 87.771,212.959Z"/>
        <path d="M102.5,67.59 a19.0,19.0 0 1,0 38.0,0 a19.0,19.0 0 1,0 -38.0,0 z"/>
      </g>
    </g>
    <g id="Ultralight-L">
      <g transform="matrix(3.49781,0,0,3.49781,1321.206,827.740)">
        <path d="M68.606,226.648C51.814,226.648 37.851,221.629 26.717,211.59C15.583,201.551 7.917,187.953 3.719,170.796C-0.48,153.638 -0.571,134.473 3.445,113.3C7.46,92.127 15.035,73.054 26.169,56.079C37.303,39.104 50.81,25.597 66.69,15.558C82.569,5.519 99.453,0.5 117.34,0.5C135.958,0.5 150.925,5.702 162.241,16.106C173.558,26.51 181.041,40.29 184.692,57.448C188.342,74.605 188.16,93.223 184.144,113.3C179.764,135.933 171.55,155.829 159.503,172.986C147.457,190.143 133.402,203.376 117.34,212.685C101.278,221.994 85.033,226.648 68.606,226.648ZM87.771,212.959C103.833,212.959 118.618,206.388 132.125,193.246C145.632,180.104 154.575,161.487 158.956,137.394C161.511,124.617 162.333,111.11 161.42,96.873C160.507,82.636 157.769,69.221 153.206,56.626C148.643,44.032 142.072,33.72 133.494,25.688C124.915,17.657 114.237,13.642 101.461,13.642C85.033,13.642 69.975,20.578 56.286,34.45C42.596,48.321 33.379,66.756 28.633,89.755C25.713,103.261 24.8,117.133 25.895,131.37C26.99,145.607 30.002,158.932 34.93,171.343C39.858,183.755 46.794,193.794 55.738,201.46C64.682,209.126 75.359,212.959 87.771,212.959Z"/>
        <path d="M102.5,67.59 a19.0,19.0 0 1,0 38.0,0 a19.0,19.0 0 1,0 -38.0,0 z"/>
      </g>
    </g>
    <g id="Regular-S">
      <g transform="matrix(3.49781,0,0,3.49781,1321.206,827.740)">
        <path d="M68.606,226.648C51.814,226.648 37.851,221.629 26.717,211.59C15.583,201.551 7.917,187.953 3.719,170.796C-0.48,153.638 -0.571,134.473 3.445,113.3C7.46,92.127 15.035,73.054 26.169,56.079C37.303,39.104 50.81,25.597 66.69,15.558C82.569,5.519 99.453,0.5 117.34,0.5C135.958,0.5 150.925,5.702 162.241,16.106C173.558,26.51 181.041,40.29 184.692,57.448C188.342,74.605 188.16,93.223 184.144,113.3C179.764,135.933 171.55,155.829 159.503,172.986C147.457,190.143 133.402,203.376 117.34,212.685C101.278,221.994 85.033,226.648 68.606,226.648ZM87.771,212.959C103.833,212.959 118.618,206.388 132.125,193.246C145.632,180.104 154.575,161.487 158.956,137.394C161.511,124.617 162.333,111.11 161.42,96.873C160.507,82.636 157.769,69.221 153.206,56.626C148.643,44.032 142.072,33.72 133.494,25.688C124.915,17.657 114.237,13.642 101.461,13.642C85.033,13.642 69.975,20.578 56.286,34.45C42.596,48.321 33.379,66.756 28.633,89.755C25.713,103.261 24.8,117.133 25.895,131.37C26.99,145.607 30.002,158.932 34.93,171.343C39.858,183.755 46.794,193.794 55.738,201.46C64.682,209.126 75.359,212.959 87.771,212.959Z"/>
        <path d="M102.5,67.59 a19.0,19.0 0 1,0 38.0,0 a19.0,19.0 0 1,0 -38.0,0 z"/>
      </g>
    </g>
    <g id="Regular-M">
      <g transform="matrix(3.49781,0,0,3.49781,1321.206,827.740)">
        <path d="M68.606,226.648C51.814,226.648 37.851,221.629 26.717,211.59C15.583,201.551 7.917,187.953 3.719,170.796C-0.48,153.638 -0.571,134.473 3.445,113.3C7.46,92.127 15.035,73.054 26.169,56.079C37.303,39.104 50.81,25.597 66.69,15.558C82.569,5.519 99.453,0.5 117.34,0.5C135.958,0.5 150.925,5.702 162.241,16.106C173.558,26.51 181.041,40.29 184.692,57.448C188.342,74.605 188.16,93.223 184.144,113.3C179.764,135.933 171.55,155.829 159.503,172.986C147.457,190.143 133.402,203.376 117.34,212.685C101.278,221.994 85.033,226.648 68.606,226.648ZM87.771,212.959C103.833,212.959 118.618,206.388 132.125,193.246C145.632,180.104 154.575,161.487 158.956,137.394C161.511,124.617 162.333,111.11 161.42,96.873C160.507,82.636 157.769,69.221 153.206,56.626C148.643,44.032 142.072,33.72 133.494,25.688C124.915,17.657 114.237,13.642 101.461,13.642C85.033,13.642 69.975,20.578 56.286,34.45C42.596,48.321 33.379,66.756 28.633,89.755C25.713,103.261 24.8,117.133 25.895,131.37C26.99,145.607 30.002,158.932 34.93,171.343C39.858,183.755 46.794,193.794 55.738,201.46C64.682,209.126 75.359,212.959 87.771,212.959Z"/>
        <path d="M102.5,67.59 a19.0,19.0 0 1,0 38.0,0 a19.0,19.0 0 1,0 -38.0,0 z"/>
      </g>
    </g>
    <g id="Regular-L">
      <g transform="matrix(3.49781,0,0,3.49781,1321.206,827.740)">
        <path d="M68.606,226.648C51.814,226.648 37.851,221.629 26.717,211.59C15.583,201.551 7.917,187.953 3.719,170.796C-0.48,153.638 -0.571,134.473 3.445,113.3C7.46,92.127 15.035,73.054 26.169,56.079C37.303,39.104 50.81,25.597 66.69,15.558C82.569,5.519 99.453,0.5 117.34,0.5C135.958,0.5 150.925,5.702 162.241,16.106C173.558,26.51 181.041,40.29 184.692,57.448C188.342,74.605 188.16,93.223 184.144,113.3C179.764,135.933 171.55,155.829 159.503,172.986C147.457,190.143 133.402,203.376 117.34,212.685C101.278,221.994 85.033,226.648 68.606,226.648ZM87.771,212.959C103.833,212.959 118.618,206.388 132.125,193.246C145.632,180.104 154.575,161.487 158.956,137.394C161.511,124.617 162.333,111.11 161.42,96.873C160.507,82.636 157.769,69.221 153.206,56.626C148.643,44.032 142.072,33.72 133.494,25.688C124.915,17.657 114.237,13.642 101.461,13.642C85.033,13.642 69.975,20.578 56.286,34.45C42.596,48.321 33.379,66.756 28.633,89.755C25.713,103.261 24.8,117.133 25.895,131.37C26.99,145.607 30.002,158.932 34.93,171.343C39.858,183.755 46.794,193.794 55.738,201.46C64.682,209.126 75.359,212.959 87.771,212.959Z"/>
        <path d="M102.5,67.59 a19.0,19.0 0 1,0 38.0,0 a19.0,19.0 0 1,0 -38.0,0 z"/>
      </g>
    </g>
    <g id="Black-S">
      <g transform="matrix(3.49781,0,0,3.49781,1321.206,827.740)">
        <path d="M68.606,226.648C51.814,226.648 37.851,221.629 26.717,211.59C15.583,201.551 7.917,187.953 3.719,170.796C-0.48,153.638 -0.571,134.473 3.445,113.3C7.46,92.127 15.035,73.054 26.169,56.079C37.303,39.104 50.81,25.597 66.69,15.558C82.569,5.519 99.453,0.5 117.34,0.5C135.958,0.5 150.925,5.702 162.241,16.106C173.558,26.51 181.041,40.29 184.692,57.448C188.342,74.605 188.16,93.223 184.144,113.3C179.764,135.933 171.55,155.829 159.503,172.986C147.457,190.143 133.402,203.376 117.34,212.685C101.278,221.994 85.033,226.648 68.606,226.648ZM87.771,212.959C103.833,212.959 118.618,206.388 132.125,193.246C145.632,180.104 154.575,161.487 158.956,137.394C161.511,124.617 162.333,111.11 161.42,96.873C160.507,82.636 157.769,69.221 153.206,56.626C148.643,44.032 142.072,33.72 133.494,25.688C124.915,17.657 114.237,13.642 101.461,13.642C85.033,13.642 69.975,20.578 56.286,34.45C42.596,48.321 33.379,66.756 28.633,89.755C25.713,103.261 24.8,117.133 25.895,131.37C26.99,145.607 30.002,158.932 34.93,171.343C39.858,183.755 46.794,193.794 55.738,201.46C64.682,209.126 75.359,212.959 87.771,212.959Z"/>
        <path d="M102.5,67.59 a19.0,19.0 0 1,0 38.0,0 a19.0,19.0 0 1,0 -38.0,0 z"/>
      </g>
    </g>
    <g id="Black-M">
      <g transform="matrix(3.49781,0,0,3.49781,1321.206,827.740)">
        <path d="M68.606,226.648C51.814,226.648 37.851,221.629 26.717,211.59C15.583,201.551 7.917,187.953 3.719,170.796C-0.48,153.638 -0.571,134.473 3.445,113.3C7.46,92.127 15.035,73.054 26.169,56.079C37.303,39.104 50.81,25.597 66.69,15.558C82.569,5.519 99.453,0.5 117.34,0.5C135.958,0.5 150.925,5.702 162.241,16.106C173.558,26.51 181.041,40.29 184.692,57.448C188.342,74.605 188.16,93.223 184.144,113.3C179.764,135.933 171.55,155.829 159.503,172.986C147.457,190.143 133.402,203.376 117.34,212.685C101.278,221.994 85.033,226.648 68.606,226.648ZM87.771,212.959C103.833,212.959 118.618,206.388 132.125,193.246C145.632,180.104 154.575,161.487 158.956,137.394C161.511,124.617 162.333,111.11 161.42,96.873C160.507,82.636 157.769,69.221 153.206,56.626C148.643,44.032 142.072,33.72 133.494,25.688C124.915,17.657 114.237,13.642 101.461,13.642C85.033,13.642 69.975,20.578 56.286,34.45C42.596,48.321 33.379,66.756 28.633,89.755C25.713,103.261 24.8,117.133 25.895,131.37C26.99,145.607 30.002,158.932 34.93,171.343C39.858,183.755 46.794,193.794 55.738,201.46C64.682,209.126 75.359,212.959 87.771,212.959Z"/>
        <path d="M102.5,67.59 a19.0,19.0 0 1,0 38.0,0 a19.0,19.0 0 1,0 -38.0,0 z"/>
      </g>
    </g>
    <g id="Black-L">
      <g transform="matrix(3.49781,0,0,3.49781,1321.206,827.740)">
        <path d="M68.606,226.648C51.814,226.648 37.851,221.629 26.717,211.59C15.583,201.551 7.917,187.953 3.719,170.796C-0.48,153.638 -0.571,134.473 3.445,113.3C7.46,92.127 15.035,73.054 26.169,56.079C37.303,39.104 50.81,25.597 66.69,15.558C82.569,5.519 99.453,0.5 117.34,0.5C135.958,0.5 150.925,5.702 162.241,16.106C173.558,26.51 181.041,40.29 184.692,57.448C188.342,74.605 188.16,93.223 184.144,113.3C179.764,135.933 171.55,155.829 159.503,172.986C147.457,190.143 133.402,203.376 117.34,212.685C101.278,221.994 85.033,226.648 68.606,226.648ZM87.771,212.959C103.833,212.959 118.618,206.388 132.125,193.246C145.632,180.104 154.575,161.487 158.956,137.394C161.511,124.617 162.333,111.11 161.42,96.873C160.507,82.636 157.769,69.221 153.206,56.626C148.643,44.032 142.072,33.72 133.494,25.688C124.915,17.657 114.237,13.642 101.461,13.642C85.033,13.642 69.975,20.578 56.286,34.45C42.596,48.321 33.379,66.756 28.633,89.755C25.713,103.261 24.8,117.133 25.895,131.37C26.99,145.607 30.002,158.932 34.93,171.343C39.858,183.755 46.794,193.794 55.738,201.46C64.682,209.126 75.359,212.959 87.771,212.959Z"/>
        <path d="M102.5,67.59 a19.0,19.0 0 1,0 38.0,0 a19.0,19.0 0 1,0 -38.0,0 z"/>
      </g>
    </g>
  </g>
</svg>
