<?xml version="1.0" encoding="UTF-8" standalone="no"?>
<!DOCTYPE svg PUBLIC "-//W3C//DTD SVG 1.1//EN" "http://www.w3.org/Graphics/SVG/1.1/DTD/svg11.dtd">
<svg width="100%" height="100%" viewBox="0 0 190 280" version="1.1" xmlns="http://www.w3.org/2000/svg" xmlns:xlink="http://www.w3.org/1999/xlink" xml:space="preserve" xmlns:serif="http://www.serif.com/" style="fill-rule:evenodd;clip-rule:evenodd;stroke-linecap:round;stroke-linejoin:round;stroke-miterlimit:1.5;">
    <g id="Artboard1" transform="matrix(1,0,0,0.07,0,0)">
        <rect x="0" y="0" width="190" height="4000" style="fill:none;"/>
        <g transform="matrix(0.0645,0,0,0.921429,-30.388,1336.874574)">
            <g transform="matrix(1,0,0,1,0,-1)">
                <circle cx="1163" cy="319" r="19" style="fill:rgb(15,14,12);stroke:rgb(15,14,12);stroke-width:15.5px;"/>
            </g>
            <g transform="matrix(0.719521,0,0,0.719521,244.337715,50.39965)">
                <path d="M1120.541,742.211C1085.745,742.211 1057.472,734.663 1035.725,719.568C1013.977,704.472 997.986,685.283 987.751,662C977.517,638.717 972.4,615.05 972.4,591C972.4,565.414 977.261,542.643 986.984,522.686C996.706,502.729 1009.627,485.842 1025.746,472.026C1041.865,458.21 1059.647,447.72 1079.092,440.556C1098.537,433.392 1117.727,429.81 1136.66,429.81C1150.988,429.81 1164.804,431.729 1178.109,435.567C1191.413,439.404 1202.415,444.65 1211.114,451.302C1219.814,457.954 1224.163,465.374 1224.163,473.561C1224.163,479.702 1222.244,484.947 1218.406,489.297C1214.568,493.646 1209.068,495.821 1201.904,495.821C1194.74,495.821 1188.599,493.518 1183.482,488.913C1178.365,484.307 1174.271,479.446 1171.201,474.329C1165.06,465.63 1157.768,458.594 1149.325,453.221C1140.882,447.848 1128.473,445.161 1112.098,445.161C1080.883,445.161 1057.089,456.547 1040.714,479.318C1024.339,502.089 1016.152,531.897 1016.152,568.74C1016.152,594.837 1020.757,619.272 1029.968,642.043C1039.179,664.814 1053.379,683.236 1072.568,697.308C1091.757,711.38 1116.703,718.416 1147.406,718.416C1160.711,718.416 1174.399,716.497 1188.471,712.659C1202.543,708.822 1215.208,701.785 1226.466,691.551C1228.001,690.528 1229.664,691.04 1231.455,693.086C1233.246,695.133 1233.374,696.668 1231.839,697.692C1214.441,713.555 1196.786,724.941 1178.876,731.849C1160.966,738.757 1141.521,742.211 1120.541,742.211Z" style="fill:rgb(15,14,12);stroke:rgb(15,14,12);stroke-width:21.55px;stroke-linecap:butt;stroke-miterlimit:2;"/>
                <path d="M1492.045,737.605C1489.998,738.629 1487.951,739.141 1485.904,739.141C1479.764,739.141 1474.135,733.768 1469.018,723.022C1463.901,712.276 1461.342,696.668 1461.342,676.2L1461.342,528.059C1461.342,496.333 1456.353,474.329 1446.375,462.048C1436.396,449.767 1423.987,443.626 1409.147,443.626C1396.355,443.626 1385.737,446.568 1377.293,452.453C1368.85,458.338 1362.454,465.63 1358.104,474.329C1353.754,483.028 1350.556,491.215 1348.509,498.891C1347.486,504.008 1345.695,510.021 1343.136,516.929C1340.578,523.837 1334.181,527.291 1323.947,527.291C1316.271,527.291 1310.515,524.989 1306.677,520.383C1302.839,515.778 1300.92,510.916 1300.92,505.799C1300.92,497.1 1305.525,488.273 1314.736,479.318C1323.947,470.363 1335.589,462.048 1349.661,454.372C1363.733,446.696 1378.445,440.556 1393.796,435.95C1409.147,431.345 1423.22,429.042 1436.012,429.042C1456.993,429.042 1472.344,435.822 1482.067,449.383C1491.789,462.943 1496.65,481.493 1496.65,505.032L1496.65,650.102C1496.65,668.524 1498.825,681.957 1503.175,690.4C1507.524,698.843 1515.072,703.065 1525.818,703.065C1535.541,703.065 1549.613,699.227 1568.034,691.551C1570.593,690.528 1572.384,691.423 1573.407,694.238C1574.431,697.052 1573.663,698.971 1571.105,699.994L1492.045,737.605ZM1356.185,738.373C1337.252,738.373 1322.796,733.128 1312.817,722.638C1302.839,712.148 1297.85,699.994 1297.85,686.178C1297.85,677.479 1300.025,669.036 1304.374,660.848C1308.724,652.661 1316.399,644.729 1327.401,637.054C1338.403,629.378 1353.627,621.958 1373.072,614.794L1469.018,578.718L1470.553,588.697L1379.98,623.237C1369.234,627.331 1361.046,631.809 1355.418,636.67C1349.789,641.531 1345.951,646.648 1343.904,652.021C1341.857,657.394 1340.834,662.895 1340.834,668.524C1340.834,679.782 1344.544,690.016 1351.963,699.227C1359.383,708.438 1370.257,713.043 1384.585,713.043C1390.214,713.043 1396.099,712.148 1402.239,710.357C1408.38,708.566 1415.8,705.112 1424.499,699.994L1475.926,670.059L1477.461,679.27L1419.893,715.346C1407.101,723.533 1395.843,729.418 1386.12,733C1376.398,736.582 1366.419,738.373 1356.185,738.373Z" style="fill:rgb(15,14,12);stroke:rgb(15,14,12);stroke-width:21.55px;stroke-linecap:butt;stroke-miterlimit:2;"/>
                <path d="M1718.478,742.211C1706.197,742.211 1694.556,740.292 1683.554,736.454C1672.552,732.616 1663.725,726.22 1657.073,717.265C1650.42,708.31 1647.094,696.157 1647.094,680.805L1647.094,498.124C1647.094,485.331 1646.327,475.992 1644.791,470.107C1643.256,464.223 1639.674,460.385 1634.045,458.594C1628.417,456.803 1619.462,455.907 1607.181,455.907C1605.645,455.907 1604.878,454.372 1604.878,451.302C1604.878,448.232 1605.645,446.696 1607.181,446.696C1626.626,446.696 1642.361,441.323 1654.386,430.577C1666.411,419.831 1672.424,406.271 1672.424,389.896C1672.424,388.361 1674.343,387.593 1678.181,387.593C1682.019,387.593 1683.938,388.361 1683.938,389.896L1683.938,654.708C1683.938,676.2 1689.183,692.191 1699.673,702.681C1710.163,713.171 1725.642,718.416 1746.111,718.416C1759.927,718.416 1772.08,716.241 1782.57,711.892C1793.06,707.542 1801.632,702.809 1808.284,697.692C1810.331,696.668 1812.122,697.308 1813.657,699.611C1815.192,701.913 1814.936,703.832 1812.889,705.367C1793.956,718.672 1777.325,728.139 1762.997,733.768C1748.669,739.396 1733.83,742.211 1718.478,742.211ZM1789.862,473.561C1769.905,468.444 1750.844,465.246 1732.678,463.967C1714.512,462.687 1695.195,462.048 1674.727,462.048L1674.727,445.929C1694.684,445.929 1714.001,445.161 1732.678,443.626C1751.356,442.091 1771.185,440.3 1792.165,438.253C1793.7,438.253 1794.979,439.916 1796.003,443.242C1797.026,446.568 1797.538,450.79 1797.538,455.907C1797.538,459.489 1796.77,463.455 1795.235,467.805C1793.7,472.154 1791.909,474.073 1789.862,473.561Z" style="fill:rgb(15,14,12);stroke:rgb(15,14,12);stroke-width:21.55px;stroke-linecap:butt;stroke-miterlimit:2;"/>
                <path d="M2010.155,742.211C1975.358,742.211 1947.086,734.663 1925.338,719.568C1903.59,704.472 1887.599,685.283 1877.365,662C1867.131,638.717 1862.014,615.05 1862.014,591C1862.014,565.414 1866.875,542.643 1876.598,522.686C1886.32,502.729 1899.241,485.842 1915.36,472.026C1931.479,458.21 1949.261,447.72 1968.706,440.556C1988.151,433.392 2007.34,429.81 2026.274,429.81C2040.602,429.81 2054.418,431.729 2067.723,435.567C2081.027,439.404 2092.029,444.65 2100.728,451.302C2109.427,457.954 2113.777,465.374 2113.777,473.561C2113.777,479.702 2111.858,484.947 2108.02,489.297C2104.182,493.646 2098.681,495.821 2091.517,495.821C2084.353,495.821 2078.213,493.518 2073.096,488.913C2067.978,484.307 2063.885,479.446 2060.814,474.329C2054.674,465.63 2047.382,458.594 2038.939,453.221C2030.495,447.848 2018.086,445.161 2001.712,445.161C1970.497,445.161 1946.702,456.547 1930.328,479.318C1913.953,502.089 1905.765,531.897 1905.765,568.74C1905.765,594.837 1910.371,619.272 1919.582,642.043C1928.792,664.814 1942.992,683.236 1962.182,697.308C1981.371,711.38 2006.317,718.416 2037.02,718.416C2050.324,718.416 2064.013,716.497 2078.085,712.659C2092.157,708.822 2104.822,701.785 2116.079,691.551C2117.615,690.528 2119.278,691.04 2121.069,693.086C2122.86,695.133 2122.988,696.668 2121.452,697.692C2104.054,713.555 2086.4,724.941 2068.49,731.849C2050.58,738.757 2031.135,742.211 2010.155,742.211Z" style="fill:rgb(15,14,12);stroke:rgb(15,14,12);stroke-width:21.55px;stroke-linecap:butt;stroke-miterlimit:2;"/>
                <path d="M2166.739,733C2165.204,733 2164.436,731.465 2164.436,728.395C2164.436,725.324 2165.204,723.789 2166.739,723.789C2187.719,723.789 2201.28,720.463 2207.42,713.811C2213.561,707.158 2216.631,692.831 2216.631,670.827L2216.631,272.458C2216.631,254.036 2214.84,240.604 2211.258,232.161C2207.676,223.717 2201.28,219.496 2192.069,219.496C2183.881,219.496 2171.6,223.333 2155.226,231.009C2153.179,232.033 2151.516,231.137 2150.236,228.323C2148.957,225.508 2149.341,223.589 2151.388,222.566L2245.799,176.512L2247.334,176.512C2248.869,176.512 2250.148,177.023 2251.172,178.047C2252.195,179.07 2252.707,180.35 2252.707,181.885L2252.707,670.827C2252.707,692.831 2255.777,707.158 2261.918,713.811C2268.058,720.463 2281.875,723.789 2303.367,723.789C2304.39,723.789 2304.902,725.324 2304.902,728.395C2304.902,731.465 2304.39,733 2303.367,733C2294.156,733 2283.794,732.744 2272.28,732.232C2260.766,731.721 2248.357,731.465 2235.053,731.465C2222.26,731.465 2209.851,731.721 2197.826,732.232C2185.8,732.744 2175.438,733 2166.739,733ZM2373.215,733C2371.68,733 2370.913,731.465 2370.913,728.395C2370.913,725.324 2371.68,723.789 2373.215,723.789C2394.196,723.789 2407.756,720.463 2413.897,713.811C2420.037,707.158 2423.107,692.831 2423.107,670.827L2423.107,545.713C2423.107,484.819 2399.057,454.372 2350.956,454.372C2330.999,454.372 2310.914,460.896 2290.702,473.945C2270.489,486.994 2252.963,504.52 2238.123,526.524L2235.053,517.313C2259.103,485.587 2282.13,462.943 2304.134,449.383C2326.138,435.822 2348.653,429.042 2371.68,429.042C2399.313,429.042 2420.805,436.59 2436.156,451.686C2451.508,466.781 2459.183,490.192 2459.183,521.918L2459.183,670.827C2459.183,692.831 2462.254,707.158 2468.394,713.811C2474.535,720.463 2488.351,723.789 2509.843,723.789C2510.866,723.789 2511.378,725.324 2511.378,728.395C2511.378,731.465 2510.866,733 2509.843,733C2500.632,733 2490.27,732.744 2478.756,732.232C2467.243,731.721 2454.834,731.465 2441.529,731.465C2428.736,731.465 2416.327,731.721 2404.302,732.232C2392.277,732.744 2381.915,733 2373.215,733Z" style="fill:rgb(15,14,12);stroke:rgb(15,14,12);stroke-width:21.55px;stroke-linecap:butt;stroke-miterlimit:2;"/>
                <path d="M2595.811,739.908C2583.53,739.908 2575.854,734.407 2572.784,723.405C2569.713,712.404 2570.737,692.831 2575.854,664.686L2653.379,251.734C2656.449,235.359 2654.402,224.869 2647.238,220.263C2640.074,215.658 2624.467,219.24 2600.416,231.009C2598.369,232.033 2596.706,231.009 2595.427,227.939C2594.148,224.869 2594.531,223.078 2596.578,222.566L2690.989,176.512C2693.036,175.488 2695.083,176 2697.13,178.047C2699.177,180.094 2699.944,181.629 2699.433,182.652L2609.627,664.686C2606.045,680.549 2605.661,692.319 2608.476,699.994C2611.29,707.67 2616.023,711.508 2622.676,711.508C2628.305,711.508 2635.724,708.054 2644.935,701.146C2654.146,694.238 2664.38,685.155 2675.638,673.897C2677.685,671.85 2679.732,671.85 2681.779,673.897C2683.825,675.944 2683.825,677.991 2681.779,680.038C2664.892,698.971 2649.669,713.683 2636.108,724.173C2622.548,734.663 2609.115,739.908 2595.811,739.908Z" style="fill:rgb(15,14,12);stroke:rgb(15,14,12);stroke-width:21.55px;stroke-linecap:butt;stroke-miterlimit:2;"/>
                <path d="M2791.541,739.908C2780.283,739.908 2772.736,734.791 2768.898,724.557C2765.06,714.322 2765.955,694.366 2771.584,664.686L2803.055,505.032C2809.195,473.817 2804.846,458.21 2790.006,458.21C2783.865,458.21 2775.934,461.28 2766.211,467.421C2756.489,473.561 2745.999,482.516 2734.741,494.286C2733.206,496.333 2731.287,496.205 2728.984,493.902C2726.681,491.599 2726.554,489.68 2728.6,488.145C2745.999,468.7 2761.734,454.116 2775.806,444.394C2789.878,434.671 2803.311,429.81 2816.103,429.81C2828.384,429.81 2836.06,435.311 2839.13,446.313C2842.201,457.314 2840.921,476.887 2835.293,505.032L2804.59,664.686C2801.52,680.549 2801.264,692.319 2803.822,699.994C2806.381,707.67 2810.986,711.508 2817.638,711.508C2823.267,711.508 2830.943,708.438 2840.666,702.297C2850.388,696.157 2860.878,687.202 2872.136,675.432C2874.183,673.385 2876.23,673.513 2878.277,675.816C2880.323,678.119 2880.323,680.038 2878.277,681.573C2861.39,701.018 2845.911,715.602 2831.839,725.324C2817.766,735.047 2804.334,739.908 2791.541,739.908ZM2839.13,336.166C2829.408,336.166 2821.86,333.608 2816.487,328.491C2811.114,323.373 2808.428,315.954 2808.428,306.231C2808.428,297.532 2811.114,290.624 2816.487,285.507C2821.86,280.39 2829.408,277.831 2839.13,277.831C2848.853,277.831 2856.273,280.39 2861.39,285.507C2866.507,290.624 2869.066,297.532 2869.066,306.231C2869.066,326.188 2859.087,336.166 2839.13,336.166Z" style="fill:rgb(15,14,12);stroke:rgb(15,14,12);stroke-width:21.55px;stroke-linecap:butt;stroke-miterlimit:2;"/>
                <path d="M2978.061,948.687C2950.428,948.687 2927.657,944.21 2909.747,935.255C2891.837,926.3 2879.044,914.658 2871.368,900.33C2863.693,886.002 2861.646,870.907 2865.228,855.044C2870.857,832.528 2885.185,812.955 2908.212,796.325C2931.239,779.694 2957.336,763.191 2986.504,746.816L2991.877,752.957C2979.084,760.633 2966.163,768.436 2953.115,776.368C2940.066,784.299 2928.808,793.126 2919.342,802.849C2909.875,812.571 2903.862,824.597 2901.304,838.925C2898.745,855.299 2901.687,870.267 2910.131,883.828C2918.574,897.388 2931.751,908.134 2949.661,916.065C2967.571,923.997 2989.062,927.963 3014.136,927.963C3042.792,927.963 3065.052,922.206 3080.915,910.692C3096.778,899.179 3105.221,884.723 3106.245,867.325C3106.757,853.508 3103.047,841.483 3095.115,831.249C3087.184,821.015 3076.821,811.932 3064.028,804C3051.236,796.069 3037.803,788.521 3023.731,781.357C3009.659,774.193 2996.482,766.773 2984.201,759.097C2971.92,751.422 2962.453,742.978 2955.801,733.768C2949.149,724.557 2946.846,713.811 2948.893,701.53C2951.452,690.272 2956.952,679.782 2965.396,670.059C2973.839,660.337 2984.457,649.847 2997.25,638.589L3005.693,644.729C2999.553,648.311 2993.924,653.684 2988.807,660.848C2983.689,668.012 2980.619,675.432 2979.596,683.108C2978.061,693.854 2981.003,703.321 2988.423,711.508C2995.843,719.695 3005.821,727.243 3018.358,734.151C3030.895,741.059 3044.2,748.096 3058.272,755.26C3072.344,762.424 3085.648,770.099 3098.185,778.287C3110.722,786.474 3120.701,795.941 3128.121,806.687C3135.54,817.433 3138.483,830.226 3136.948,845.065C3135.924,862.463 3127.993,879.094 3113.153,894.957C3098.313,910.82 3079.124,923.741 3055.585,933.72C3032.046,943.698 3006.205,948.687 2978.061,948.687ZM3011.834,657.778C2992.389,657.778 2976.398,652.533 2963.861,642.043C2951.324,631.553 2942.88,617.737 2938.531,600.594C2934.181,583.452 2934.309,564.646 2938.915,544.178C2943.008,522.686 2951.324,503.497 2963.861,486.61C2976.398,469.723 2991.493,456.419 3009.147,446.696C3026.801,436.974 3045.607,432.113 3065.564,432.113C3085.52,432.113 3101.511,437.23 3113.537,447.464C3125.562,457.698 3133.621,471.259 3137.715,488.145C3141.809,505.032 3141.553,523.709 3136.948,544.178C3132.342,567.205 3123.515,587.162 3110.466,604.048C3097.418,620.935 3082.194,634.111 3064.796,643.578C3047.398,653.045 3029.744,657.778 3011.834,657.778ZM3031.023,643.962C3046.886,643.962 3061.598,637.31 3075.158,624.005C3088.719,610.701 3097.802,592.279 3102.407,568.74C3105.477,551.342 3105.733,533.176 3103.175,514.243C3100.616,495.309 3094.731,479.062 3085.52,465.502C3076.31,451.941 3063.261,445.161 3046.374,445.161C3030,445.161 3014.904,452.325 3001.088,466.653C2987.271,480.981 2978.316,499.147 2974.223,521.151C2970.641,539.061 2970.385,557.61 2973.455,576.799C2976.525,595.989 2982.922,611.98 2992.644,624.773C3002.367,637.565 3015.16,643.962 3031.023,643.962ZM3093.964,467.421L3093.196,462.048C3108.548,452.837 3124.922,445.417 3142.321,439.788C3159.719,434.159 3175.582,431.345 3189.91,431.345C3192.469,431.345 3193.876,433.264 3194.132,437.102C3194.387,440.94 3193.876,445.161 3192.596,449.767C3191.317,454.372 3189.91,458.338 3188.375,461.664C3186.84,464.99 3185.305,466.141 3183.769,465.118C3172,459.489 3157.8,457.186 3141.169,458.21C3124.539,459.233 3108.803,462.304 3093.964,467.421Z" style="fill:rgb(15,14,12);stroke:rgb(15,14,12);stroke-width:21.55px;stroke-linecap:butt;stroke-miterlimit:2;"/>
                <path d="M3234.429,739.141C3227.777,739.141 3223.427,738.757 3221.38,737.989C3219.333,737.222 3218.31,736.07 3218.31,734.535C3218.31,733 3219.717,726.22 3222.532,714.195C3225.346,702.169 3227.777,689.504 3229.824,676.2L3309.651,251.734C3313.233,235.359 3311.058,224.869 3303.127,220.263C3295.195,215.658 3279.204,219.24 3255.153,231.009C3253.107,232.033 3251.444,231.009 3250.164,227.939C3248.885,224.869 3249.269,223.078 3251.316,222.566L3345.727,176.512C3347.774,175.488 3349.82,176 3351.867,178.047C3353.914,180.094 3354.682,181.629 3354.17,182.652L3254.386,728.395C3253.362,735.559 3246.71,739.141 3234.429,739.141ZM3428.624,739.908C3416.343,739.908 3408.795,734.407 3405.981,723.405C3403.167,712.404 3404.318,692.831 3409.435,664.686L3431.695,542.643C3437.323,512.452 3437.835,489.936 3433.23,475.096C3428.624,460.257 3418.134,452.837 3401.759,452.837C3384.873,452.837 3367.091,463.583 3348.413,485.075C3329.736,506.567 3312.082,537.909 3295.451,579.102C3278.82,620.295 3265.132,670.059 3254.386,728.395L3245.943,727.627C3256.689,668.268 3271.144,615.946 3289.31,570.659C3307.476,525.372 3328.073,490.064 3351.1,464.734C3374.127,439.404 3398.177,426.74 3423.251,426.74C3445.255,426.74 3459.583,434.543 3466.235,450.15C3472.887,465.758 3473.143,491.727 3467.003,528.059L3441.673,664.686C3439.114,680.549 3438.986,692.319 3441.289,699.994C3443.592,707.67 3448.069,711.508 3454.722,711.508C3460.862,711.508 3468.538,708.054 3477.749,701.146C3486.96,694.238 3497.194,685.155 3508.452,673.897C3510.498,671.85 3512.545,671.85 3514.592,673.897C3516.639,675.944 3516.639,677.991 3514.592,680.038C3497.706,698.971 3482.482,713.683 3468.922,724.173C3455.361,734.663 3441.929,739.908 3428.624,739.908Z" style="fill:rgb(15,14,12);stroke:rgb(15,14,12);stroke-width:21.55px;stroke-linecap:butt;stroke-miterlimit:2;"/>
                <path d="M3618.214,742.211C3609.003,742.211 3600.176,740.292 3591.733,736.454C3583.29,732.616 3577.021,726.22 3572.927,717.265C3568.834,708.31 3568.066,696.157 3570.625,680.805L3604.398,498.124C3607.98,478.678 3608.364,466.781 3605.549,462.432C3602.735,458.082 3593.652,455.907 3578.3,455.907C3576.254,455.907 3575.486,454.372 3575.998,451.302C3576.509,448.232 3577.533,446.696 3579.068,446.696C3595.443,446.696 3609.643,441.323 3621.668,430.577C3633.693,419.831 3641.241,406.271 3644.311,389.896C3644.311,388.361 3646.486,387.593 3650.836,387.593C3655.185,387.593 3657.104,388.361 3656.593,389.896L3609.003,654.708C3604.91,676.2 3605.677,691.935 3611.306,701.913C3616.935,711.892 3627.681,716.881 3643.544,716.881C3659.919,716.881 3674.119,713.171 3686.144,705.751C3698.169,698.331 3709.555,690.016 3720.301,680.805C3721.324,679.782 3722.859,680.294 3724.906,682.34C3726.953,684.387 3727.465,685.922 3726.441,686.946C3703.414,706.903 3683.33,721.103 3666.187,729.546C3649.045,737.989 3633.054,742.211 3618.214,742.211ZM3727.209,469.723C3725.674,469.723 3719.789,469.084 3709.555,467.805C3699.321,466.525 3687.423,465.246 3673.863,463.967C3660.302,462.687 3647.382,462.048 3635.101,462.048L3636.636,445.161C3648.405,445.161 3662.221,444.65 3678.085,443.626C3693.948,442.603 3708.531,441.707 3721.836,440.94C3735.141,440.172 3743.328,439.788 3746.398,439.788C3748.445,439.788 3749.98,440.3 3751.004,441.323C3752.027,442.347 3752.283,443.882 3751.771,445.929C3750.748,450.023 3747.678,455.012 3742.56,460.896C3737.443,466.781 3732.326,469.723 3727.209,469.723Z" style="fill:rgb(15,14,12);stroke:rgb(15,14,12);stroke-width:21.55px;stroke-linecap:butt;stroke-miterlimit:2;"/>
            </g>
        </g>
        <g transform="matrix(0.059925,0,0,0.856073,-62.932584,-989.88764)">
            <g>
                <rect x="1968" y="1173" width="1335" height="1335" style="fill:rgb(247,244,239);stroke:rgb(247,244,239);stroke-width:16.69px;"/>
                <g transform="matrix(1.79677,0,0,1.79677,-2550.876178,-1698.238223)">
                    <circle cx="2886.5" cy="1969.5" r="371.5" style="fill:rgb(224,217,206);stroke:rgb(224,217,206);stroke-width:9.29px;"/>
                </g>
                <g transform="matrix(1.678683,0,0,1.678683,-2324.170063,-1834.137931)">
                    <circle cx="2954.5" cy="2189" r="319" style="fill:rgb(212,204,191);stroke:rgb(212,204,191);stroke-width:9.94px;"/>
                </g>
                <g transform="matrix(1.26489,0,0,1.26489,-1101.618339,-928.344828)">
                    <circle cx="2954.5" cy="2189" r="319" style="fill:rgb(200,191,177);stroke:rgb(200,191,177);stroke-width:13.19px;"/>
                </g>
                <g transform="matrix(0.851097,0,0,0.851097,120.933386,-22.551724)">
                    <circle cx="2954.5" cy="2189" r="319" style="fill:rgb(184,176,163);stroke:rgb(184,176,163);stroke-width:19.61px;"/>
                </g>
            </g>
            <g transform="matrix(1.682436,0,0,1.682436,103.805831,-1574.963801)">
                <path d="M1445.608,2256.092C1419.563,2256.092 1398.014,2250.046 1380.96,2237.954C1363.907,2225.862 1351.195,2209.893 1342.823,2190.05C1334.452,2170.206 1329.646,2148.502 1328.405,2124.937C1327.165,2101.373 1329.025,2078.428 1333.986,2056.104C1342.668,2016.416 1357.551,1983.085 1378.635,1956.11C1399.719,1929.134 1423.904,1908.515 1451.189,1894.253C1478.474,1879.99 1505.139,1872.859 1531.184,1872.859C1546.067,1872.859 1559.71,1875.184 1572.112,1879.835C1584.515,1884.486 1594.127,1890.842 1600.948,1898.904C1607.769,1906.965 1610.56,1915.957 1609.319,1925.879C1608.699,1932.7 1606.374,1938.901 1602.343,1944.482C1598.312,1950.063 1591.956,1952.854 1583.274,1952.854C1576.453,1952.854 1570.407,1950.528 1565.136,1945.878C1559.865,1941.227 1555.679,1934.56 1552.579,1925.879C1550.718,1919.057 1545.757,1911.616 1537.696,1903.554C1529.634,1895.493 1517.232,1891.462 1500.489,1891.462C1478.164,1891.462 1459.096,1897.818 1443.282,1910.531C1427.469,1923.243 1414.757,1939.831 1405.145,1960.295C1395.533,1980.759 1388.247,2003.394 1383.286,2028.198C1377.085,2062.305 1376,2094.551 1380.03,2124.937C1384.061,2155.323 1394.293,2179.973 1410.726,2198.886C1427.159,2217.8 1450.259,2227.257 1480.025,2227.257C1502.969,2227.257 1522.503,2222.451 1538.626,2212.839C1554.749,2203.227 1569.632,2192.84 1583.274,2181.678C1585.135,2180.438 1587.305,2181.058 1589.786,2183.538C1592.266,2186.019 1592.576,2188.189 1590.716,2190.05C1564.671,2212.994 1539.711,2229.737 1515.836,2240.279C1491.962,2250.821 1468.552,2256.092 1445.608,2256.092Z" style="fill:rgb(15,14,12);stroke:rgb(15,14,12);stroke-width:9.92px;stroke-linecap:butt;stroke-miterlimit:2;"/>
            </g>
            <g>
                <g transform="matrix(1.132075,0,0,1.132075,1471.735849,-566.95283)">
                    <circle cx="1300.5" cy="1813" r="53" style="fill:rgb(224,217,206);stroke:rgb(224,217,206);stroke-width:14.74px;"/>
                </g>
                <g transform="matrix(1.037736,0,0,1.037736,1594.424528,-395.915094)">
                    <circle cx="1300.5" cy="1813" r="53" style="fill:rgb(201,169,110);stroke:rgb(201,169,110);stroke-width:16.08px;"/>
                </g>
                <g transform="matrix(0.943396,0,0,0.943396,1717.113208,-224.877358)">
                    <circle cx="1300.5" cy="1813" r="53" style="stroke:rgb(15,14,12);stroke-width:17.69px;"/>
                </g>
            </g>
        </g>
        <g transform="matrix(1,0,0,14.285714,-62.705,-221.857143)">
            <path d="M68.175,183C68.159,183 68.152,182.977 68.152,182.93C68.152,182.883 68.159,182.86 68.175,182.86C68.432,182.86 68.626,182.841 68.758,182.802C68.891,182.763 68.988,182.685 69.05,182.568C69.112,182.452 69.163,182.281 69.202,182.055L70.158,176.653C70.221,176.319 70.207,176.101 70.118,176C70.028,175.899 69.797,175.848 69.423,175.848C69.4,175.848 69.388,175.825 69.388,175.778C69.388,175.732 69.4,175.708 69.423,175.708L73.868,175.708C73.931,175.708 73.954,175.743 73.938,175.813C73.915,175.953 73.89,176.113 73.862,176.292C73.835,176.471 73.81,176.646 73.787,176.817C73.763,176.988 73.74,177.128 73.717,177.237C73.709,177.268 73.682,177.279 73.635,177.272C73.588,177.264 73.569,177.248 73.577,177.225C73.647,176.821 73.618,176.494 73.489,176.245C73.361,175.996 73.149,175.872 72.853,175.872L71.698,175.872C71.457,175.872 71.271,175.891 71.138,175.93C71.006,175.969 70.911,176.045 70.853,176.157C70.794,176.27 70.746,176.439 70.707,176.665L69.762,182.008C69.707,182.335 69.723,182.547 69.808,182.644C69.894,182.741 70.119,182.79 70.485,182.79L72.013,182.79C72.27,182.79 72.517,182.65 72.754,182.37C72.991,182.09 73.172,181.728 73.297,181.285C73.304,181.262 73.332,181.254 73.378,181.262C73.425,181.269 73.441,181.285 73.425,181.308C73.363,181.511 73.299,181.754 73.233,182.037C73.166,182.321 73.114,182.584 73.075,182.825C73.052,182.942 72.989,183 72.888,183L68.175,183ZM72.725,180.27C72.717,180.301 72.69,180.315 72.643,180.311C72.597,180.307 72.577,180.289 72.585,180.258C72.647,179.908 72.632,179.663 72.538,179.523C72.445,179.383 72.239,179.313 71.92,179.313L69.995,179.313L70.03,179.092L72.002,179.092C72.297,179.092 72.511,179.031 72.643,178.911C72.776,178.79 72.865,178.582 72.912,178.287C72.919,178.256 72.947,178.242 72.993,178.246C73.04,178.25 73.059,178.271 73.052,178.31C73.021,178.528 72.989,178.697 72.958,178.817C72.927,178.938 72.904,179.068 72.888,179.208C72.857,179.379 72.832,179.549 72.812,179.716C72.793,179.883 72.764,180.068 72.725,180.27Z" style="fill-rule:nonzero;"/>
            <path d="M76.097,183.152C75.832,183.152 75.618,183.068 75.455,182.901C75.292,182.734 75.181,182.522 75.123,182.265C75.064,182.008 75.054,181.748 75.093,181.483C75.156,181.126 75.276,180.756 75.455,180.375C75.634,179.994 75.797,179.636 75.945,179.302C75.992,179.193 76.003,179.117 75.98,179.074C75.957,179.031 75.902,179.01 75.817,179.01L75.21,179.01C75.008,179.01 74.856,179.024 74.755,179.051C74.654,179.078 74.574,179.136 74.516,179.226C74.457,179.315 74.397,179.457 74.335,179.652C74.319,179.683 74.29,179.691 74.248,179.675C74.205,179.659 74.191,179.632 74.207,179.593C74.323,179.259 74.424,179.014 74.51,178.858C74.596,178.703 74.701,178.602 74.825,178.555C74.949,178.508 75.124,178.485 75.35,178.485L76.377,178.485C76.447,178.485 76.487,178.493 76.499,178.508C76.511,178.524 76.501,178.563 76.47,178.625C76.283,179.053 76.104,179.504 75.933,179.978C75.762,180.453 75.653,180.881 75.607,181.262C75.552,181.705 75.597,182.049 75.741,182.294C75.885,182.539 76.093,182.662 76.365,182.662C76.598,182.662 76.832,182.582 77.065,182.422C77.298,182.263 77.51,182.039 77.701,181.752C77.891,181.464 78.041,181.126 78.15,180.737C78.259,180.348 78.3,180.042 78.273,179.821C78.245,179.599 78.193,179.438 78.115,179.337C78.037,179.236 77.979,179.169 77.94,179.138C77.909,179.107 77.856,179.059 77.782,178.992C77.709,178.926 77.672,178.839 77.672,178.73C77.672,178.598 77.72,178.506 77.818,178.456C77.915,178.405 78.002,178.38 78.08,178.38C78.259,178.38 78.385,178.479 78.459,178.677C78.533,178.876 78.572,179.117 78.576,179.401C78.58,179.685 78.562,179.955 78.523,180.212C78.453,180.678 78.331,181.092 78.156,181.454C77.981,181.816 77.775,182.123 77.538,182.376C77.3,182.629 77.057,182.821 76.808,182.953C76.559,183.086 76.322,183.152 76.097,183.152Z" style="fill-rule:nonzero;"/>
            <path d="M80.74,183.14C80.336,183.14 80.017,183.033 79.783,182.819C79.55,182.605 79.396,182.323 79.323,181.973C79.249,181.623 79.251,181.246 79.328,180.842C79.375,180.554 79.478,180.262 79.638,179.967C79.797,179.671 79.995,179.401 80.233,179.156C80.47,178.911 80.734,178.714 81.026,178.567C81.318,178.419 81.627,178.345 81.953,178.345C82.226,178.345 82.428,178.401 82.56,178.514C82.692,178.627 82.739,178.781 82.7,178.975C82.661,179.154 82.554,179.327 82.379,179.494C82.204,179.661 81.979,179.813 81.703,179.949C81.426,180.085 81.119,180.202 80.781,180.299C80.443,180.396 80.091,180.468 79.725,180.515L79.748,180.363C80.355,180.278 80.866,180.14 81.283,179.949C81.699,179.759 81.946,179.516 82.023,179.22C82.086,179.002 82.047,178.854 81.907,178.777C81.767,178.699 81.615,178.66 81.452,178.66C81.172,178.66 80.927,178.742 80.717,178.905C80.507,179.068 80.338,179.286 80.209,179.558C80.081,179.831 79.989,180.13 79.935,180.457C79.849,180.9 79.84,181.295 79.906,181.641C79.972,181.987 80.108,182.261 80.314,182.463C80.52,182.666 80.791,182.767 81.125,182.767C81.319,182.767 81.52,182.739 81.726,182.685C81.932,182.631 82.132,182.529 82.327,182.382C82.35,182.366 82.375,182.374 82.403,182.405C82.43,182.436 82.432,182.463 82.408,182.487C82.113,182.72 81.829,182.887 81.557,182.988C81.284,183.089 81.012,183.14 80.74,183.14Z" style="fill-rule:nonzero;"/>
            <path d="M84.123,182.93L84.007,182.918C84.069,182.584 84.158,182.214 84.275,181.81C84.392,181.406 84.528,181.003 84.683,180.602C84.839,180.202 85.004,179.834 85.179,179.5C85.354,179.166 85.533,178.897 85.716,178.695C85.899,178.493 86.076,178.392 86.247,178.392C86.348,178.392 86.447,178.419 86.544,178.473C86.641,178.528 86.719,178.602 86.778,178.695C86.836,178.788 86.853,178.889 86.83,178.998C86.807,179.099 86.766,179.171 86.708,179.214C86.649,179.257 86.577,179.278 86.492,179.278C86.375,179.278 86.291,179.245 86.241,179.179C86.19,179.113 86.148,179.047 86.113,178.981C86.078,178.915 86.021,178.882 85.943,178.882C85.827,178.882 85.7,178.975 85.564,179.162C85.428,179.348 85.286,179.593 85.138,179.897C84.991,180.2 84.851,180.532 84.718,180.894C84.586,181.256 84.468,181.616 84.363,181.973C84.258,182.331 84.178,182.65 84.123,182.93ZM83.832,183.093C83.731,183.093 83.666,183.087 83.639,183.076C83.612,183.064 83.598,183.047 83.598,183.023C83.598,183 83.62,182.889 83.663,182.691C83.705,182.492 83.742,182.308 83.773,182.137L84.135,180.095C84.205,179.737 84.232,179.469 84.217,179.29C84.201,179.111 84.164,178.989 84.106,178.922C84.048,178.856 83.983,178.823 83.913,178.823C83.797,178.823 83.674,178.87 83.546,178.963C83.418,179.057 83.303,179.15 83.202,179.243C83.186,179.259 83.163,179.253 83.132,179.226C83.101,179.199 83.093,179.173 83.108,179.15C83.326,178.901 83.534,178.712 83.733,178.584C83.931,178.456 84.127,178.392 84.322,178.392C84.454,178.392 84.557,178.438 84.631,178.532C84.705,178.625 84.746,178.794 84.753,179.039C84.761,179.284 84.722,179.636 84.637,180.095L84.123,182.93C84.108,183.039 84.011,183.093 83.832,183.093Z" style="fill-rule:nonzero;"/>
            <path d="M86.597,186.278C86.472,186.278 86.369,186.243 86.288,186.173C86.206,186.103 86.173,185.994 86.188,185.847C86.235,185.676 86.371,185.59 86.597,185.59C86.76,185.59 86.925,185.576 87.093,185.549C87.26,185.522 87.421,185.477 87.577,185.415C87.732,185.353 87.872,185.279 87.997,185.193C88.168,185.077 88.366,184.876 88.592,184.592C88.817,184.309 89.054,183.982 89.303,183.612C89.552,183.243 89.789,182.862 90.015,182.469C90.241,182.076 90.435,181.705 90.598,181.355C90.762,181.005 90.871,180.713 90.925,180.48C90.972,180.27 90.991,180.07 90.983,179.879C90.976,179.689 90.952,179.516 90.913,179.36C90.874,179.204 90.839,179.07 90.808,178.957C90.777,178.845 90.762,178.761 90.762,178.707C90.762,178.613 90.793,178.536 90.855,178.473C90.917,178.411 91.003,178.38 91.112,178.38C91.267,178.38 91.372,178.436 91.427,178.549C91.481,178.662 91.508,178.804 91.508,178.975C91.508,179.263 91.448,179.605 91.328,180.002C91.207,180.398 91.04,180.828 90.826,181.291C90.612,181.754 90.369,182.218 90.097,182.685C89.824,183.152 89.535,183.601 89.228,184.032C88.92,184.464 88.609,184.847 88.294,185.182C87.979,185.516 87.676,185.782 87.384,185.981C87.093,186.179 86.83,186.278 86.597,186.278ZM89,184.26C89.047,182.549 88.948,181.223 88.703,180.282C88.458,179.341 88.106,178.87 87.647,178.87C87.546,178.87 87.441,178.901 87.332,178.963C87.223,179.026 87.126,179.142 87.04,179.313C87.024,179.344 86.995,179.354 86.953,179.342C86.91,179.331 86.892,179.309 86.9,179.278C87.048,178.983 87.201,178.761 87.361,178.613C87.52,178.466 87.705,178.392 87.915,178.392C88.195,178.392 88.442,178.526 88.656,178.794C88.87,179.062 89.045,179.43 89.181,179.897C89.317,180.363 89.412,180.902 89.467,181.512C89.521,182.123 89.529,182.774 89.49,183.467L89,184.26Z" style="fill-rule:nonzero;"/>
            <path d="M96.082,183.14C95.942,183.14 95.808,183.111 95.679,183.052C95.551,182.994 95.456,182.897 95.393,182.761C95.331,182.625 95.319,182.44 95.358,182.207L95.872,179.43C95.926,179.134 95.932,178.954 95.889,178.887C95.846,178.821 95.708,178.788 95.475,178.788C95.444,178.788 95.432,178.765 95.44,178.718C95.448,178.672 95.463,178.648 95.487,178.648C95.736,178.648 95.951,178.567 96.134,178.403C96.317,178.24 96.432,178.034 96.478,177.785C96.478,177.762 96.511,177.75 96.578,177.75C96.644,177.75 96.673,177.762 96.665,177.785L95.942,181.81C95.879,182.137 95.891,182.376 95.977,182.527C96.062,182.679 96.226,182.755 96.467,182.755C96.716,182.755 96.931,182.699 97.114,182.586C97.297,182.473 97.47,182.347 97.633,182.207C97.649,182.191 97.672,182.199 97.703,182.23C97.734,182.261 97.742,182.284 97.727,182.3C97.377,182.603 97.071,182.819 96.811,182.947C96.55,183.076 96.307,183.14 96.082,183.14ZM97.738,178.998C97.715,178.998 97.626,178.989 97.47,178.969C97.314,178.95 97.134,178.93 96.928,178.911C96.721,178.891 96.525,178.882 96.338,178.882L96.362,178.625C96.541,178.625 96.751,178.617 96.992,178.602C97.233,178.586 97.454,178.572 97.657,178.561C97.859,178.549 97.983,178.543 98.03,178.543C98.061,178.543 98.084,178.551 98.1,178.567C98.116,178.582 98.119,178.606 98.112,178.637C98.096,178.699 98.049,178.775 97.972,178.864C97.894,178.954 97.816,178.998 97.738,178.998Z" style="fill-rule:nonzero;"/>
            <path d="M98.847,183.093C98.746,183.093 98.679,183.087 98.648,183.076C98.617,183.064 98.602,183.047 98.602,183.023C98.602,183 98.623,182.897 98.666,182.714C98.709,182.531 98.746,182.339 98.777,182.137L99.99,175.685C100.044,175.436 100.011,175.277 99.891,175.207C99.77,175.137 99.527,175.191 99.162,175.37C99.131,175.386 99.105,175.37 99.086,175.323C99.066,175.277 99.072,175.249 99.103,175.242L100.538,174.542C100.569,174.526 100.601,174.534 100.632,174.565C100.663,174.596 100.674,174.619 100.667,174.635L99.15,182.93C99.134,183.039 99.033,183.093 98.847,183.093ZM101.798,183.105C101.612,183.105 101.497,183.021 101.454,182.854C101.411,182.687 101.429,182.389 101.507,181.962L101.845,180.107C101.931,179.648 101.938,179.306 101.868,179.08C101.798,178.854 101.639,178.742 101.39,178.742C101.133,178.742 100.863,178.905 100.579,179.232C100.295,179.558 100.027,180.035 99.774,180.661C99.521,181.287 99.313,182.043 99.15,182.93L99.022,182.918C99.185,182.016 99.405,181.221 99.681,180.532C99.957,179.844 100.27,179.307 100.62,178.922C100.97,178.537 101.336,178.345 101.717,178.345C102.051,178.345 102.269,178.464 102.37,178.701C102.471,178.938 102.475,179.333 102.382,179.885L101.997,181.962C101.958,182.203 101.956,182.382 101.991,182.498C102.026,182.615 102.094,182.673 102.195,182.673C102.288,182.673 102.405,182.621 102.545,182.516C102.685,182.411 102.841,182.273 103.012,182.102C103.043,182.071 103.074,182.071 103.105,182.102C103.136,182.133 103.136,182.164 103.105,182.195C102.848,182.483 102.617,182.706 102.411,182.866C102.205,183.025 102.001,183.105 101.798,183.105Z" style="fill-rule:nonzero;"/>
            <path d="M105.135,183.163C104.777,183.163 104.48,183.056 104.243,182.842C104.005,182.629 103.842,182.339 103.753,181.973C103.663,181.608 103.661,181.199 103.747,180.748C103.832,180.297 103.994,179.891 104.231,179.529C104.468,179.167 104.756,178.88 105.094,178.666C105.433,178.452 105.792,178.345 106.173,178.345C106.57,178.345 106.889,178.456 107.13,178.677C107.371,178.899 107.531,179.193 107.608,179.558C107.686,179.924 107.682,180.321 107.597,180.748C107.503,181.231 107.328,181.654 107.072,182.02C106.815,182.386 106.516,182.667 106.173,182.866C105.831,183.064 105.485,183.163 105.135,183.163ZM105.543,182.872C105.886,182.872 106.201,182.732 106.488,182.452C106.776,182.172 106.967,181.775 107.06,181.262C107.114,180.989 107.132,180.702 107.113,180.398C107.093,180.095 107.035,179.809 106.938,179.541C106.84,179.272 106.7,179.053 106.518,178.882C106.335,178.711 106.107,178.625 105.835,178.625C105.485,178.625 105.164,178.773 104.873,179.068C104.581,179.364 104.384,179.757 104.283,180.247C104.221,180.534 104.202,180.83 104.225,181.133C104.248,181.437 104.313,181.721 104.418,181.985C104.523,182.249 104.67,182.463 104.861,182.627C105.051,182.79 105.279,182.872 105.543,182.872Z" style="fill-rule:nonzero;"/>
            <path d="M109.522,183.152C109.187,183.152 108.964,183.031 108.851,182.79C108.738,182.549 108.74,182.156 108.857,181.612L109.277,179.535C109.323,179.294 109.327,179.115 109.288,178.998C109.249,178.882 109.179,178.823 109.078,178.823C108.993,178.823 108.88,178.874 108.74,178.975C108.6,179.076 108.444,179.216 108.273,179.395C108.242,179.426 108.211,179.426 108.18,179.395C108.149,179.364 108.149,179.333 108.18,179.302C108.437,179.006 108.67,178.781 108.88,178.625C109.09,178.469 109.292,178.392 109.487,178.392C109.666,178.392 109.78,178.475 109.831,178.642C109.881,178.81 109.86,179.107 109.767,179.535L109.393,181.39C109.292,181.857 109.281,182.201 109.358,182.422C109.436,182.644 109.599,182.755 109.848,182.755C110.105,182.755 110.375,182.592 110.659,182.265C110.943,181.938 111.211,181.462 111.464,180.836C111.717,180.21 111.925,179.453 112.088,178.567L112.217,178.578C112.061,179.481 111.845,180.276 111.569,180.964C111.293,181.652 110.98,182.189 110.63,182.574C110.28,182.959 109.911,183.152 109.522,183.152ZM111.773,183.105C111.594,183.105 111.484,183.021 111.441,182.854C111.398,182.687 111.416,182.389 111.493,181.962L112.088,178.567C112.104,178.458 112.205,178.403 112.392,178.403C112.493,178.403 112.559,178.409 112.59,178.421C112.621,178.432 112.637,178.45 112.637,178.473C112.637,178.497 112.617,178.6 112.578,178.782C112.539,178.965 112.501,179.158 112.462,179.36L111.983,181.962C111.906,182.436 111.972,182.673 112.182,182.673C112.275,182.673 112.396,182.627 112.543,182.533C112.691,182.44 112.851,182.304 113.022,182.125C113.045,182.094 113.074,182.096 113.109,182.131C113.144,182.166 113.146,182.195 113.115,182.218C112.851,182.514 112.611,182.736 112.398,182.883C112.184,183.031 111.976,183.105 111.773,183.105Z" style="fill-rule:nonzero;"/>
            <path d="M114.597,186.278C114.177,186.278 113.831,186.21 113.558,186.074C113.286,185.938 113.092,185.761 112.975,185.543C112.858,185.326 112.827,185.096 112.882,184.855C112.967,184.513 113.185,184.215 113.535,183.962C113.885,183.71 114.282,183.459 114.725,183.21L114.807,183.303C114.612,183.42 114.416,183.539 114.218,183.659C114.019,183.78 113.848,183.914 113.704,184.062C113.56,184.209 113.469,184.392 113.43,184.61C113.391,184.859 113.436,185.086 113.564,185.292C113.693,185.499 113.893,185.662 114.165,185.782C114.437,185.903 114.764,185.963 115.145,185.963C115.581,185.963 115.919,185.876 116.16,185.701C116.401,185.526 116.529,185.306 116.545,185.042C116.553,184.832 116.496,184.649 116.376,184.493C116.255,184.338 116.098,184.2 115.903,184.079C115.709,183.959 115.505,183.844 115.291,183.735C115.077,183.626 114.877,183.513 114.69,183.397C114.503,183.28 114.359,183.152 114.258,183.012C114.157,182.872 114.122,182.708 114.153,182.522C114.192,182.351 114.276,182.191 114.404,182.043C114.533,181.896 114.694,181.736 114.888,181.565L115.017,181.658C114.923,181.713 114.838,181.794 114.76,181.903C114.682,182.012 114.636,182.125 114.62,182.242C114.597,182.405 114.641,182.549 114.754,182.673C114.867,182.798 115.019,182.912 115.209,183.017C115.4,183.122 115.602,183.229 115.816,183.338C116.03,183.447 116.232,183.564 116.423,183.688C116.613,183.813 116.765,183.957 116.878,184.12C116.99,184.283 117.035,184.478 117.012,184.703C116.996,184.968 116.876,185.221 116.65,185.462C116.424,185.703 116.133,185.899 115.775,186.051C115.417,186.202 115.024,186.278 114.597,186.278ZM115.11,181.857C114.814,181.857 114.571,181.777 114.381,181.617C114.19,181.458 114.062,181.248 113.996,180.987C113.93,180.727 113.932,180.441 114.002,180.13C114.064,179.803 114.19,179.512 114.381,179.255C114.571,178.998 114.801,178.796 115.069,178.648C115.338,178.501 115.623,178.427 115.927,178.427C116.23,178.427 116.473,178.504 116.656,178.66C116.839,178.816 116.961,179.022 117.023,179.278C117.086,179.535 117.082,179.819 117.012,180.13C116.942,180.48 116.808,180.783 116.609,181.04C116.411,181.297 116.179,181.497 115.915,181.641C115.651,181.785 115.382,181.857 115.11,181.857ZM115.402,181.647C115.643,181.647 115.866,181.546 116.073,181.343C116.279,181.141 116.417,180.861 116.487,180.503C116.533,180.239 116.537,179.963 116.498,179.675C116.459,179.387 116.37,179.14 116.23,178.934C116.09,178.728 115.892,178.625 115.635,178.625C115.386,178.625 115.157,178.734 114.947,178.952C114.737,179.169 114.601,179.446 114.538,179.78C114.484,180.052 114.48,180.334 114.527,180.626C114.573,180.917 114.671,181.161 114.818,181.355C114.966,181.549 115.161,181.647 115.402,181.647ZM116.358,178.963L116.347,178.882C116.58,178.742 116.829,178.629 117.093,178.543C117.358,178.458 117.599,178.415 117.817,178.415C117.856,178.415 117.877,178.444 117.881,178.502C117.885,178.561 117.877,178.625 117.858,178.695C117.838,178.765 117.817,178.825 117.793,178.876C117.77,178.926 117.747,178.944 117.723,178.928C117.544,178.843 117.329,178.808 117.076,178.823C116.823,178.839 116.584,178.886 116.358,178.963Z" style="fill-rule:nonzero;"/>
            <path d="M118.493,183.093C118.392,183.093 118.326,183.087 118.295,183.076C118.264,183.064 118.248,183.047 118.248,183.023C118.248,183 118.27,182.897 118.313,182.714C118.355,182.531 118.392,182.339 118.423,182.137L119.637,175.685C119.691,175.436 119.658,175.277 119.538,175.207C119.417,175.137 119.174,175.191 118.808,175.37C118.777,175.386 118.752,175.37 118.733,175.323C118.713,175.277 118.719,175.249 118.75,175.242L120.185,174.542C120.216,174.526 120.247,174.534 120.278,174.565C120.309,174.596 120.321,174.619 120.313,174.635L118.797,182.93C118.781,183.039 118.68,183.093 118.493,183.093ZM121.445,183.105C121.258,183.105 121.144,183.021 121.101,182.854C121.058,182.687 121.076,182.389 121.153,181.962L121.492,180.107C121.577,179.648 121.585,179.306 121.515,179.08C121.445,178.854 121.286,178.742 121.037,178.742C120.78,178.742 120.51,178.905 120.226,179.232C119.942,179.558 119.674,180.035 119.421,180.661C119.168,181.287 118.96,182.043 118.797,182.93L118.668,182.918C118.832,182.016 119.051,181.221 119.328,180.532C119.604,179.844 119.917,179.307 120.267,178.922C120.617,178.537 120.982,178.345 121.363,178.345C121.698,178.345 121.916,178.464 122.017,178.701C122.118,178.938 122.122,179.333 122.028,179.885L121.643,181.962C121.604,182.203 121.603,182.382 121.638,182.498C121.673,182.615 121.741,182.673 121.842,182.673C121.935,182.673 122.052,182.621 122.192,182.516C122.332,182.411 122.487,182.273 122.658,182.102C122.689,182.071 122.721,182.071 122.752,182.102C122.783,182.133 122.783,182.164 122.752,182.195C122.495,182.483 122.264,182.706 122.058,182.866C121.851,183.025 121.647,183.105 121.445,183.105Z" style="fill-rule:nonzero;"/>
            <path d="M124.327,183.14C124.187,183.14 124.053,183.111 123.924,183.052C123.796,182.994 123.701,182.897 123.638,182.761C123.576,182.625 123.564,182.44 123.603,182.207L124.117,179.43C124.171,179.134 124.177,178.954 124.134,178.887C124.091,178.821 123.953,178.788 123.72,178.788C123.689,178.788 123.677,178.765 123.685,178.718C123.693,178.672 123.708,178.648 123.732,178.648C123.981,178.648 124.196,178.567 124.379,178.403C124.562,178.24 124.677,178.034 124.723,177.785C124.723,177.762 124.756,177.75 124.823,177.75C124.889,177.75 124.918,177.762 124.91,177.785L124.187,181.81C124.124,182.137 124.136,182.376 124.222,182.527C124.307,182.679 124.471,182.755 124.712,182.755C124.961,182.755 125.176,182.699 125.359,182.586C125.542,182.473 125.715,182.347 125.878,182.207C125.894,182.191 125.917,182.199 125.948,182.23C125.979,182.261 125.987,182.284 125.972,182.3C125.622,182.603 125.316,182.819 125.056,182.947C124.795,183.076 124.552,183.14 124.327,183.14ZM125.983,178.998C125.96,178.998 125.871,178.989 125.715,178.969C125.559,178.95 125.379,178.93 125.173,178.911C124.966,178.891 124.77,178.882 124.583,178.882L124.607,178.625C124.786,178.625 124.996,178.617 125.237,178.602C125.478,178.586 125.699,178.572 125.902,178.561C126.104,178.549 126.228,178.543 126.275,178.543C126.306,178.543 126.329,178.551 126.345,178.567C126.361,178.582 126.364,178.606 126.357,178.637C126.341,178.699 126.294,178.775 126.217,178.864C126.139,178.954 126.061,178.998 125.983,178.998Z" style="fill-rule:nonzero;"/>
            <path d="M130.3,183.152C130.113,183.152 129.94,183.099 129.781,182.994C129.621,182.889 129.505,182.718 129.431,182.481C129.357,182.244 129.351,181.927 129.413,181.53C129.491,181.094 129.631,180.686 129.833,180.305C130.036,179.924 130.282,179.586 130.574,179.29C130.866,178.994 131.179,178.763 131.513,178.596C131.848,178.429 132.186,178.345 132.528,178.345C132.738,178.345 132.935,178.405 133.118,178.526C133.3,178.646 133.407,178.847 133.438,179.127L132.972,180.13C132.731,180.713 132.468,181.232 132.184,181.687C131.9,182.142 131.601,182.5 131.286,182.761C130.971,183.021 130.642,183.152 130.3,183.152ZM130.627,182.65C130.891,182.65 131.15,182.545 131.403,182.335C131.655,182.125 131.885,181.861 132.091,181.542C132.297,181.223 132.47,180.896 132.61,180.562C132.75,180.227 132.843,179.939 132.89,179.698C132.952,179.379 132.917,179.134 132.785,178.963C132.653,178.792 132.447,178.711 132.167,178.718C131.646,178.726 131.181,178.932 130.773,179.337C130.364,179.741 130.094,180.328 129.962,181.098C129.876,181.619 129.899,182.008 130.032,182.265C130.164,182.522 130.362,182.65 130.627,182.65ZM132.762,183.105C132.575,183.105 132.46,183.021 132.418,182.854C132.375,182.687 132.392,182.389 132.47,181.962L133.66,175.685C133.707,175.436 133.67,175.277 133.549,175.207C133.429,175.137 133.186,175.191 132.82,175.37C132.789,175.386 132.766,175.37 132.75,175.323C132.734,175.277 132.742,175.249 132.773,175.242L134.208,174.542C134.232,174.526 134.259,174.534 134.29,174.565C134.321,174.596 134.333,174.619 134.325,174.635L132.96,181.962C132.913,182.203 132.911,182.382 132.954,182.498C132.997,182.615 133.069,182.673 133.17,182.673C133.256,182.673 133.368,182.621 133.508,182.516C133.648,182.411 133.804,182.273 133.975,182.102C133.998,182.071 134.028,182.071 134.062,182.102C134.097,182.133 134.099,182.164 134.068,182.195C133.804,182.483 133.571,182.706 133.368,182.866C133.166,183.025 132.964,183.105 132.762,183.105Z" style="fill-rule:nonzero;"/>
            <path d="M136.052,183.14C135.647,183.14 135.328,183.033 135.095,182.819C134.862,182.605 134.708,182.323 134.634,181.973C134.56,181.623 134.562,181.246 134.64,180.842C134.687,180.554 134.79,180.262 134.949,179.967C135.109,179.671 135.307,179.401 135.544,179.156C135.781,178.911 136.046,178.714 136.338,178.567C136.629,178.419 136.938,178.345 137.265,178.345C137.537,178.345 137.739,178.401 137.872,178.514C138.004,178.627 138.051,178.781 138.012,178.975C137.973,179.154 137.866,179.327 137.691,179.494C137.516,179.661 137.29,179.813 137.014,179.949C136.738,180.085 136.431,180.202 136.093,180.299C135.754,180.396 135.402,180.468 135.037,180.515L135.06,180.363C135.667,180.278 136.178,180.14 136.594,179.949C137.01,179.759 137.257,179.516 137.335,179.22C137.397,179.002 137.358,178.854 137.218,178.777C137.078,178.699 136.927,178.66 136.763,178.66C136.483,178.66 136.238,178.742 136.028,178.905C135.818,179.068 135.649,179.286 135.521,179.558C135.392,179.831 135.301,180.13 135.247,180.457C135.161,180.9 135.151,181.295 135.218,181.641C135.284,181.987 135.42,182.261 135.626,182.463C135.832,182.666 136.102,182.767 136.437,182.767C136.631,182.767 136.831,182.739 137.037,182.685C137.244,182.631 137.444,182.529 137.638,182.382C137.662,182.366 137.687,182.374 137.714,182.405C137.741,182.436 137.743,182.463 137.72,182.487C137.424,182.72 137.141,182.887 136.868,182.988C136.596,183.089 136.324,183.14 136.052,183.14Z" style="fill-rule:nonzero;"/>
            <path d="M139.365,183.128C139.085,183.128 138.838,183.06 138.624,182.924C138.41,182.788 138.319,182.623 138.35,182.428C138.366,182.335 138.404,182.265 138.467,182.218C138.529,182.172 138.595,182.148 138.665,182.148C138.751,182.148 138.815,182.187 138.858,182.265C138.9,182.343 138.947,182.43 138.998,182.527C139.048,182.625 139.124,182.712 139.225,182.79C139.326,182.868 139.474,182.907 139.668,182.907C139.894,182.907 140.079,182.842 140.222,182.714C140.366,182.586 140.454,182.393 140.485,182.137C140.524,181.896 140.493,181.687 140.392,181.512C140.291,181.337 140.154,181.18 139.983,181.04C139.812,180.9 139.645,180.758 139.482,180.614C139.318,180.47 139.188,180.311 139.091,180.136C138.994,179.961 138.968,179.753 139.015,179.512C139.062,179.255 139.165,179.043 139.324,178.876C139.484,178.709 139.67,178.584 139.884,178.502C140.098,178.421 140.31,178.38 140.52,178.38C140.777,178.38 140.994,178.434 141.173,178.543C141.352,178.652 141.43,178.781 141.407,178.928C141.391,179.029 141.35,179.101 141.284,179.144C141.218,179.187 141.154,179.208 141.092,179.208C140.998,179.208 140.923,179.179 140.864,179.121C140.806,179.062 140.748,178.994 140.689,178.917C140.631,178.839 140.559,178.771 140.473,178.712C140.388,178.654 140.267,178.625 140.112,178.625C139.964,178.625 139.826,178.662 139.698,178.736C139.569,178.81 139.493,178.936 139.47,179.115C139.431,179.348 139.462,179.551 139.563,179.722C139.664,179.893 139.799,180.052 139.966,180.2C140.133,180.348 140.3,180.497 140.468,180.649C140.635,180.801 140.767,180.97 140.864,181.157C140.961,181.343 140.991,181.561 140.952,181.81C140.913,182.043 140.817,182.261 140.666,182.463C140.514,182.666 140.326,182.827 140.1,182.947C139.874,183.068 139.629,183.128 139.365,183.128Z" style="fill-rule:nonzero;"/>
            <path d="M143.483,183.14C143.079,183.14 142.76,183.033 142.527,182.819C142.293,182.605 142.14,182.323 142.066,181.973C141.992,181.623 141.994,181.246 142.072,180.842C142.118,180.554 142.221,180.262 142.381,179.967C142.54,179.671 142.739,179.401 142.976,179.156C143.213,178.911 143.477,178.714 143.769,178.567C144.061,178.419 144.37,178.345 144.697,178.345C144.969,178.345 145.171,178.401 145.303,178.514C145.436,178.627 145.482,178.781 145.443,178.975C145.404,179.154 145.298,179.327 145.123,179.494C144.947,179.661 144.722,179.813 144.446,179.949C144.17,180.085 143.863,180.202 143.524,180.299C143.186,180.396 142.834,180.468 142.468,180.515L142.492,180.363C143.098,180.278 143.61,180.14 144.026,179.949C144.442,179.759 144.689,179.516 144.767,179.22C144.829,179.002 144.79,178.854 144.65,178.777C144.51,178.699 144.358,178.66 144.195,178.66C143.915,178.66 143.67,178.742 143.46,178.905C143.25,179.068 143.081,179.286 142.953,179.558C142.824,179.831 142.733,180.13 142.678,180.457C142.593,180.9 142.583,181.295 142.649,181.641C142.715,181.987 142.851,182.261 143.058,182.463C143.264,182.666 143.534,182.767 143.868,182.767C144.063,182.767 144.263,182.739 144.469,182.685C144.675,182.631 144.876,182.529 145.07,182.382C145.093,182.366 145.119,182.374 145.146,182.405C145.173,182.436 145.175,182.463 145.152,182.487C144.856,182.72 144.572,182.887 144.3,182.988C144.028,183.089 143.756,183.14 143.483,183.14Z" style="fill-rule:nonzero;"/>
            <path d="M146.867,182.93L146.75,182.918C146.812,182.584 146.902,182.214 147.018,181.81C147.135,181.406 147.271,181.003 147.427,180.602C147.582,180.202 147.748,179.834 147.923,179.5C148.098,179.166 148.276,178.897 148.459,178.695C148.642,178.493 148.819,178.392 148.99,178.392C149.091,178.392 149.19,178.419 149.288,178.473C149.385,178.528 149.463,178.602 149.521,178.695C149.579,178.788 149.597,178.889 149.573,178.998C149.55,179.099 149.509,179.171 149.451,179.214C149.393,179.257 149.321,179.278 149.235,179.278C149.118,179.278 149.035,179.245 148.984,179.179C148.934,179.113 148.891,179.047 148.856,178.981C148.821,178.915 148.764,178.882 148.687,178.882C148.57,178.882 148.444,178.975 148.308,179.162C148.171,179.348 148.029,179.593 147.882,179.897C147.734,180.2 147.594,180.532 147.462,180.894C147.329,181.256 147.211,181.616 147.106,181.973C147.001,182.331 146.921,182.65 146.867,182.93ZM146.575,183.093C146.474,183.093 146.41,183.087 146.383,183.076C146.355,183.064 146.342,183.047 146.342,183.023C146.342,183 146.363,182.889 146.406,182.691C146.449,182.492 146.486,182.308 146.517,182.137L146.878,180.095C146.948,179.737 146.976,179.469 146.96,179.29C146.944,179.111 146.908,178.989 146.849,178.922C146.791,178.856 146.727,178.823 146.657,178.823C146.54,178.823 146.418,178.87 146.289,178.963C146.161,179.057 146.046,179.15 145.945,179.243C145.929,179.259 145.906,179.253 145.875,179.226C145.844,179.199 145.836,179.173 145.852,179.15C146.069,178.901 146.278,178.712 146.476,178.584C146.674,178.456 146.871,178.392 147.065,178.392C147.197,178.392 147.3,178.438 147.374,178.532C147.448,178.625 147.489,178.794 147.497,179.039C147.504,179.284 147.466,179.636 147.38,180.095L146.867,182.93C146.851,183.039 146.754,183.093 146.575,183.093Z" style="fill-rule:nonzero;"/>
            <path d="M151.708,183.152C151.444,183.152 151.23,183.068 151.067,182.901C150.903,182.734 150.792,182.522 150.734,182.265C150.676,182.008 150.666,181.748 150.705,181.483C150.767,181.126 150.888,180.756 151.067,180.375C151.246,179.994 151.409,179.636 151.557,179.302C151.603,179.193 151.615,179.117 151.592,179.074C151.568,179.031 151.514,179.01 151.428,179.01L150.822,179.01C150.619,179.01 150.468,179.024 150.367,179.051C150.266,179.078 150.186,179.136 150.127,179.226C150.069,179.315 150.009,179.457 149.947,179.652C149.931,179.683 149.902,179.691 149.859,179.675C149.816,179.659 149.803,179.632 149.818,179.593C149.935,179.259 150.036,179.014 150.122,178.858C150.207,178.703 150.312,178.602 150.437,178.555C150.561,178.508 150.736,178.485 150.962,178.485L151.988,178.485C152.058,178.485 152.099,178.493 152.111,178.508C152.123,178.524 152.113,178.563 152.082,178.625C151.895,179.053 151.716,179.504 151.545,179.978C151.374,180.453 151.265,180.881 151.218,181.262C151.164,181.705 151.209,182.049 151.352,182.294C151.496,182.539 151.704,182.662 151.977,182.662C152.21,182.662 152.443,182.582 152.677,182.422C152.91,182.263 153.122,182.039 153.312,181.752C153.503,181.464 153.653,181.126 153.762,180.737C153.871,180.348 153.911,180.042 153.884,179.821C153.857,179.599 153.804,179.438 153.727,179.337C153.649,179.236 153.591,179.169 153.552,179.138C153.521,179.107 153.468,179.059 153.394,178.992C153.32,178.926 153.283,178.839 153.283,178.73C153.283,178.598 153.332,178.506 153.429,178.456C153.526,178.405 153.614,178.38 153.692,178.38C153.871,178.38 153.997,178.479 154.071,178.677C154.145,178.876 154.184,179.117 154.188,179.401C154.191,179.685 154.174,179.955 154.135,180.212C154.065,180.678 153.942,181.092 153.768,181.454C153.593,181.816 153.386,182.123 153.149,182.376C152.912,182.629 152.669,182.821 152.42,182.953C152.171,183.086 151.934,183.152 151.708,183.152Z" style="fill-rule:nonzero;"/>
            <path d="M156.352,183.14C155.947,183.14 155.628,183.033 155.395,182.819C155.162,182.605 155.008,182.323 154.934,181.973C154.86,181.623 154.862,181.246 154.94,180.842C154.987,180.554 155.09,180.262 155.249,179.967C155.409,179.671 155.607,179.401 155.844,179.156C156.081,178.911 156.346,178.714 156.638,178.567C156.929,178.419 157.238,178.345 157.565,178.345C157.837,178.345 158.039,178.401 158.172,178.514C158.304,178.627 158.351,178.781 158.312,178.975C158.273,179.154 158.166,179.327 157.991,179.494C157.816,179.661 157.59,179.813 157.314,179.949C157.038,180.085 156.731,180.202 156.393,180.299C156.054,180.396 155.702,180.468 155.337,180.515L155.36,180.363C155.967,180.278 156.478,180.14 156.894,179.949C157.31,179.759 157.557,179.516 157.635,179.22C157.697,179.002 157.658,178.854 157.518,178.777C157.378,178.699 157.227,178.66 157.063,178.66C156.783,178.66 156.538,178.742 156.328,178.905C156.118,179.068 155.949,179.286 155.821,179.558C155.692,179.831 155.601,180.13 155.547,180.457C155.461,180.9 155.451,181.295 155.518,181.641C155.584,181.987 155.72,182.261 155.926,182.463C156.132,182.666 156.402,182.767 156.737,182.767C156.931,182.767 157.131,182.739 157.338,182.685C157.544,182.631 157.744,182.529 157.938,182.382C157.962,182.366 157.987,182.374 158.014,182.405C158.041,182.436 158.043,182.463 158.02,182.487C157.724,182.72 157.441,182.887 157.168,182.988C156.896,183.089 156.624,183.14 156.352,183.14Z" style="fill-rule:nonzero;"/>
            <path d="M159.665,183.128C159.385,183.128 159.138,183.06 158.924,182.924C158.71,182.788 158.619,182.623 158.65,182.428C158.666,182.335 158.704,182.265 158.767,182.218C158.829,182.172 158.895,182.148 158.965,182.148C159.051,182.148 159.115,182.187 159.158,182.265C159.2,182.343 159.247,182.43 159.298,182.527C159.348,182.625 159.424,182.712 159.525,182.79C159.626,182.868 159.774,182.907 159.968,182.907C160.194,182.907 160.379,182.842 160.523,182.714C160.666,182.586 160.754,182.393 160.785,182.137C160.824,181.896 160.793,181.687 160.692,181.512C160.591,181.337 160.454,181.18 160.283,181.04C160.112,180.9 159.945,180.758 159.782,180.614C159.618,180.47 159.488,180.311 159.391,180.136C159.294,179.961 159.268,179.753 159.315,179.512C159.362,179.255 159.465,179.043 159.624,178.876C159.784,178.709 159.97,178.584 160.184,178.502C160.398,178.421 160.61,178.38 160.82,178.38C161.077,178.38 161.294,178.434 161.473,178.543C161.652,178.652 161.73,178.781 161.707,178.928C161.691,179.029 161.65,179.101 161.584,179.144C161.518,179.187 161.454,179.208 161.392,179.208C161.298,179.208 161.223,179.179 161.164,179.121C161.106,179.062 161.048,178.994 160.989,178.917C160.931,178.839 160.859,178.771 160.773,178.712C160.688,178.654 160.567,178.625 160.412,178.625C160.264,178.625 160.126,178.662 159.998,178.736C159.869,178.81 159.793,178.936 159.77,179.115C159.731,179.348 159.762,179.551 159.863,179.722C159.964,179.893 160.099,180.052 160.266,180.2C160.433,180.348 160.6,180.497 160.768,180.649C160.935,180.801 161.067,180.97 161.164,181.157C161.261,181.343 161.291,181.561 161.252,181.81C161.213,182.043 161.118,182.261 160.966,182.463C160.814,182.666 160.626,182.827 160.4,182.947C160.174,183.068 159.929,183.128 159.665,183.128Z" style="fill-rule:nonzero;"/>
            <path d="M165.65,183.152C165.401,183.152 165.213,183.058 165.084,182.872C164.956,182.685 164.919,182.374 164.973,181.938C165.036,181.511 165.17,181.085 165.376,180.661C165.582,180.237 165.831,179.85 166.123,179.5C166.414,179.15 166.725,178.87 167.056,178.66C167.386,178.45 167.703,178.345 168.007,178.345C168.147,178.345 168.283,178.37 168.415,178.421C168.547,178.471 168.66,178.555 168.753,178.672C168.847,178.788 168.901,178.94 168.917,179.127L168.473,178.835C168.559,178.819 168.664,178.755 168.788,178.642C168.913,178.53 168.987,178.399 169.01,178.252C169.026,178.228 169.055,178.221 169.097,178.228C169.14,178.236 169.158,178.248 169.15,178.263L168.473,181.962C168.396,182.436 168.458,182.673 168.66,182.673C168.753,182.673 168.87,182.621 169.01,182.516C169.15,182.411 169.306,182.273 169.477,182.102C169.5,182.078 169.527,182.082 169.558,182.113C169.589,182.144 169.593,182.172 169.57,182.195C169.313,182.483 169.082,182.706 168.876,182.866C168.67,183.025 168.466,183.105 168.263,183.105C168.084,183.105 167.974,183.021 167.931,182.854C167.888,182.687 167.906,182.389 167.983,181.962L168.263,180.328L168.45,180.13C168.209,180.706 167.931,181.223 167.616,181.682C167.301,182.141 166.974,182.5 166.636,182.761C166.298,183.021 165.969,183.152 165.65,183.152ZM165.988,182.65C166.214,182.65 166.449,182.562 166.694,182.387C166.939,182.212 167.176,181.981 167.406,181.693C167.635,181.406 167.836,181.087 168.007,180.737C168.178,180.387 168.298,180.041 168.368,179.698C168.431,179.426 168.401,179.193 168.281,178.998C168.16,178.804 167.948,178.711 167.645,178.718C167.365,178.726 167.075,178.854 166.776,179.103C166.476,179.352 166.212,179.685 165.983,180.101C165.753,180.517 165.599,180.989 165.522,181.518C165.467,181.884 165.475,182.164 165.545,182.358C165.615,182.553 165.763,182.65 165.988,182.65Z" style="fill-rule:nonzero;"/>
            <path d="M178.857,183.105C178.678,183.105 178.567,183.021 178.524,182.854C178.481,182.687 178.499,182.389 178.577,181.962L178.915,180.107C178.993,179.648 178.999,179.306 178.932,179.08C178.866,178.854 178.721,178.742 178.495,178.742C178.246,178.742 177.982,178.905 177.702,179.232C177.422,179.558 177.159,180.035 176.914,180.661C176.669,181.287 176.465,182.043 176.302,182.93L176.185,182.918C176.341,182.016 176.554,181.221 176.827,180.532C177.099,179.844 177.406,179.307 177.748,178.922C178.091,178.537 178.448,178.345 178.822,178.345C179.133,178.345 179.337,178.464 179.434,178.701C179.531,178.938 179.533,179.333 179.44,179.885L179.067,181.962C179.028,182.203 179.026,182.382 179.061,182.498C179.096,182.615 179.16,182.673 179.253,182.673C179.347,182.673 179.463,182.621 179.603,182.516C179.743,182.411 179.899,182.273 180.07,182.102C180.101,182.071 180.132,182.071 180.163,182.102C180.194,182.133 180.194,182.164 180.163,182.195C179.907,182.483 179.675,182.706 179.469,182.866C179.263,183.025 179.059,183.105 178.857,183.105ZM173.443,183.093C173.342,183.093 173.278,183.087 173.251,183.076C173.224,183.064 173.21,183.047 173.21,183.023C173.21,183 173.229,182.901 173.268,182.726C173.307,182.551 173.342,182.378 173.373,182.207L173.863,179.535C173.941,179.061 173.875,178.823 173.665,178.823C173.572,178.823 173.451,178.87 173.303,178.963C173.156,179.057 172.996,179.193 172.825,179.372C172.802,179.403 172.772,179.401 172.737,179.366C172.702,179.331 172.701,179.302 172.732,179.278C172.988,178.983 173.227,178.761 173.449,178.613C173.671,178.466 173.879,178.392 174.073,178.392C174.252,178.392 174.363,178.475 174.406,178.642C174.449,178.81 174.431,179.107 174.353,179.535L173.747,182.93C173.723,183.039 173.622,183.093 173.443,183.093ZM176.01,183.093C175.909,183.093 175.845,183.087 175.817,183.076C175.79,183.064 175.777,183.047 175.777,183.023C175.777,183 175.798,182.889 175.841,182.691C175.884,182.492 175.921,182.308 175.952,182.137L176.325,180.107C176.387,179.648 176.389,179.306 176.331,179.08C176.272,178.854 176.138,178.742 175.928,178.742C175.687,178.742 175.427,178.905 175.147,179.232C174.867,179.558 174.604,180.035 174.359,180.661C174.114,181.287 173.91,182.043 173.747,182.93L173.618,182.918C173.774,182.016 173.988,181.221 174.26,180.532C174.532,179.844 174.839,179.307 175.182,178.922C175.524,178.537 175.882,178.345 176.255,178.345C176.551,178.345 176.751,178.464 176.856,178.701C176.961,178.938 176.959,179.333 176.85,179.885L176.302,182.93C176.286,183.039 176.189,183.093 176.01,183.093Z" style="fill-rule:nonzero;"/>
            <path d="M182.205,183.163C181.847,183.163 181.55,183.056 181.312,182.842C181.075,182.629 180.912,182.339 180.822,181.973C180.733,181.608 180.731,181.199 180.817,180.748C180.902,180.297 181.064,179.891 181.301,179.529C181.538,179.167 181.826,178.88 182.164,178.666C182.502,178.452 182.862,178.345 183.243,178.345C183.64,178.345 183.959,178.456 184.2,178.677C184.441,178.899 184.601,179.193 184.678,179.558C184.756,179.924 184.752,180.321 184.667,180.748C184.573,181.231 184.398,181.654 184.142,182.02C183.885,182.386 183.586,182.667 183.243,182.866C182.901,183.064 182.555,183.163 182.205,183.163ZM182.613,182.872C182.956,182.872 183.271,182.732 183.558,182.452C183.846,182.172 184.037,181.775 184.13,181.262C184.184,180.989 184.202,180.702 184.182,180.398C184.163,180.095 184.105,179.809 184.007,179.541C183.91,179.272 183.77,179.053 183.587,178.882C183.405,178.711 183.177,178.625 182.905,178.625C182.555,178.625 182.234,178.773 181.942,179.068C181.651,179.364 181.454,179.757 181.353,180.247C181.291,180.534 181.272,180.83 181.295,181.133C181.318,181.437 181.382,181.721 181.487,181.985C181.593,182.249 181.74,182.463 181.931,182.627C182.121,182.79 182.349,182.872 182.613,182.872Z" style="fill-rule:nonzero;"/>
            <path d="M191.41,183.105C191.231,183.105 191.12,183.021 191.077,182.854C191.035,182.687 191.052,182.389 191.13,181.962L191.468,180.107C191.546,179.648 191.552,179.306 191.486,179.08C191.42,178.854 191.274,178.742 191.048,178.742C190.799,178.742 190.535,178.905 190.255,179.232C189.975,179.558 189.713,180.035 189.468,180.661C189.222,181.287 189.018,182.043 188.855,182.93L188.738,182.918C188.894,182.016 189.108,181.221 189.38,180.532C189.652,179.844 189.959,179.307 190.302,178.922C190.644,178.537 191.002,178.345 191.375,178.345C191.686,178.345 191.89,178.464 191.987,178.701C192.085,178.938 192.087,179.333 191.993,179.885L191.62,181.962C191.581,182.203 191.579,182.382 191.614,182.498C191.649,182.615 191.713,182.673 191.807,182.673C191.9,182.673 192.017,182.621 192.157,182.516C192.297,182.411 192.452,182.273 192.623,182.102C192.654,182.071 192.686,182.071 192.717,182.102C192.748,182.133 192.748,182.164 192.717,182.195C192.46,182.483 192.229,182.706 192.022,182.866C191.816,183.025 191.612,183.105 191.41,183.105ZM185.997,183.093C185.896,183.093 185.831,183.087 185.804,183.076C185.777,183.064 185.763,183.047 185.763,183.023C185.763,183 185.783,182.901 185.822,182.726C185.861,182.551 185.896,182.378 185.927,182.207L186.417,179.535C186.494,179.061 186.428,178.823 186.218,178.823C186.125,178.823 186.004,178.87 185.857,178.963C185.709,179.057 185.549,179.193 185.378,179.372C185.355,179.403 185.326,179.401 185.291,179.366C185.256,179.331 185.254,179.302 185.285,179.278C185.542,178.983 185.781,178.761 186.002,178.613C186.224,178.466 186.432,178.392 186.627,178.392C186.806,178.392 186.916,178.475 186.959,178.642C187.002,178.81 186.984,179.107 186.907,179.535L186.3,182.93C186.277,183.039 186.176,183.093 185.997,183.093ZM188.563,183.093C188.462,183.093 188.398,183.087 188.371,183.076C188.344,183.064 188.33,183.047 188.33,183.023C188.33,183 188.351,182.889 188.394,182.691C188.437,182.492 188.474,182.308 188.505,182.137L188.878,180.107C188.941,179.648 188.942,179.306 188.884,179.08C188.826,178.854 188.692,178.742 188.482,178.742C188.241,178.742 187.98,178.905 187.7,179.232C187.42,179.558 187.157,180.035 186.912,180.661C186.667,181.287 186.463,182.043 186.3,182.93L186.172,182.918C186.327,182.016 186.541,181.221 186.813,180.532C187.086,179.844 187.393,179.307 187.735,178.922C188.077,178.537 188.435,178.345 188.808,178.345C189.104,178.345 189.304,178.464 189.409,178.701C189.514,178.938 189.512,179.333 189.403,179.885L188.855,182.93C188.839,183.039 188.742,183.093 188.563,183.093Z" style="fill-rule:nonzero;"/>
            <path d="M194.77,183.14C194.366,183.14 194.047,183.033 193.813,182.819C193.58,182.605 193.426,182.323 193.352,181.973C193.279,181.623 193.281,181.246 193.358,180.842C193.405,180.554 193.508,180.262 193.667,179.967C193.827,179.671 194.025,179.401 194.262,179.156C194.5,178.911 194.764,178.714 195.056,178.567C195.347,178.419 195.657,178.345 195.983,178.345C196.256,178.345 196.458,178.401 196.59,178.514C196.722,178.627 196.769,178.781 196.73,178.975C196.691,179.154 196.584,179.327 196.409,179.494C196.234,179.661 196.009,179.813 195.732,179.949C195.456,180.085 195.149,180.202 194.811,180.299C194.472,180.396 194.121,180.468 193.755,180.515L193.778,180.363C194.385,180.278 194.896,180.14 195.312,179.949C195.729,179.759 195.976,179.516 196.053,179.22C196.116,179.002 196.077,178.854 195.937,178.777C195.797,178.699 195.645,178.66 195.482,178.66C195.202,178.66 194.957,178.742 194.747,178.905C194.537,179.068 194.368,179.286 194.239,179.558C194.111,179.831 194.019,180.13 193.965,180.457C193.879,180.9 193.87,181.295 193.936,181.641C194.002,181.987 194.138,182.261 194.344,182.463C194.55,182.666 194.821,182.767 195.155,182.767C195.349,182.767 195.55,182.739 195.756,182.685C195.962,182.631 196.162,182.529 196.357,182.382C196.38,182.366 196.405,182.374 196.433,182.405C196.46,182.436 196.462,182.463 196.438,182.487C196.143,182.72 195.859,182.887 195.587,182.988C195.314,183.089 195.042,183.14 194.77,183.14Z" style="fill-rule:nonzero;"/>
            <path d="M200.848,183.105C200.662,183.105 200.547,183.021 200.504,182.854C200.461,182.687 200.479,182.389 200.557,181.962L200.895,180.107C201.082,179.197 200.93,178.742 200.44,178.742C200.183,178.742 199.913,178.905 199.629,179.232C199.345,179.558 199.077,180.035 198.824,180.661C198.571,181.287 198.363,182.043 198.2,182.93L198.072,182.918C198.235,182.016 198.453,181.221 198.725,180.532C198.997,179.844 199.31,179.307 199.664,178.922C200.018,178.537 200.386,178.345 200.767,178.345C201.101,178.345 201.323,178.464 201.432,178.701C201.541,178.938 201.541,179.333 201.432,179.885L201.047,181.962C201.008,182.203 201.008,182.382 201.047,182.498C201.086,182.615 201.156,182.673 201.257,182.673C201.342,182.673 201.455,182.621 201.595,182.516C201.735,182.411 201.891,182.273 202.062,182.102C202.085,182.071 202.114,182.071 202.149,182.102C202.184,182.133 202.186,182.164 202.155,182.195C201.898,182.483 201.667,182.706 201.461,182.866C201.255,183.025 201.051,183.105 200.848,183.105ZM197.897,183.093C197.796,183.093 197.729,183.087 197.698,183.076C197.667,183.064 197.652,183.047 197.652,183.023C197.652,183 197.673,182.897 197.716,182.714C197.759,182.531 197.796,182.339 197.827,182.137L198.305,179.535C198.383,179.061 198.317,178.823 198.107,178.823C198.013,178.823 197.893,178.87 197.745,178.963C197.597,179.057 197.438,179.193 197.267,179.372C197.243,179.403 197.214,179.401 197.179,179.366C197.144,179.331 197.142,179.302 197.173,179.278C197.43,178.983 197.669,178.761 197.891,178.613C198.113,178.466 198.321,178.392 198.515,178.392C198.694,178.392 198.805,178.475 198.847,178.642C198.89,178.81 198.873,179.107 198.795,179.535L198.2,182.93C198.184,183.039 198.083,183.093 197.897,183.093Z" style="fill-rule:nonzero;"/>
            <path d="M203.73,183.14C203.59,183.14 203.456,183.111 203.328,183.052C203.199,182.994 203.104,182.897 203.042,182.761C202.979,182.625 202.968,182.44 203.007,182.207L203.52,179.43C203.574,179.134 203.58,178.954 203.538,178.887C203.495,178.821 203.357,178.788 203.123,178.788C203.092,178.788 203.081,178.765 203.088,178.718C203.096,178.672 203.112,178.648 203.135,178.648C203.384,178.648 203.6,178.567 203.782,178.403C203.965,178.24 204.08,178.034 204.127,177.785C204.127,177.762 204.16,177.75 204.226,177.75C204.292,177.75 204.321,177.762 204.313,177.785L203.59,181.81C203.528,182.137 203.539,182.376 203.625,182.527C203.711,182.679 203.874,182.755 204.115,182.755C204.364,182.755 204.58,182.699 204.763,182.586C204.945,182.473 205.118,182.347 205.282,182.207C205.297,182.191 205.321,182.199 205.352,182.23C205.383,182.261 205.391,182.284 205.375,182.3C205.025,182.603 204.72,182.819 204.459,182.947C204.199,183.076 203.956,183.14 203.73,183.14ZM205.387,178.998C205.363,178.998 205.274,178.989 205.118,178.969C204.963,178.95 204.782,178.93 204.576,178.911C204.37,178.891 204.173,178.882 203.987,178.882L204.01,178.625C204.189,178.625 204.399,178.617 204.64,178.602C204.881,178.586 205.103,178.572 205.305,178.561C205.507,178.549 205.632,178.543 205.678,178.543C205.709,178.543 205.733,178.551 205.748,178.567C205.764,178.582 205.768,178.606 205.76,178.637C205.744,178.699 205.698,178.775 205.62,178.864C205.542,178.954 205.464,178.998 205.387,178.998Z" style="fill-rule:nonzero;"/>
            <path d="M210.275,183.163C209.917,183.163 209.62,183.056 209.383,182.842C209.145,182.629 208.982,182.339 208.893,181.973C208.803,181.608 208.801,181.199 208.887,180.748C208.972,180.297 209.134,179.891 209.371,179.529C209.608,179.167 209.896,178.88 210.234,178.666C210.573,178.452 210.932,178.345 211.313,178.345C211.71,178.345 212.029,178.456 212.27,178.677C212.511,178.899 212.671,179.193 212.748,179.558C212.826,179.924 212.822,180.321 212.737,180.748C212.643,181.231 212.468,181.654 212.212,182.02C211.955,182.386 211.656,182.667 211.313,182.866C210.971,183.064 210.625,183.163 210.275,183.163ZM210.683,182.872C211.026,182.872 211.341,182.732 211.628,182.452C211.916,182.172 212.107,181.775 212.2,181.262C212.254,180.989 212.272,180.702 212.252,180.398C212.233,180.095 212.175,179.809 212.078,179.541C211.98,179.272 211.84,179.053 211.657,178.882C211.475,178.711 211.247,178.625 210.975,178.625C210.625,178.625 210.304,178.773 210.013,179.068C209.721,179.364 209.524,179.757 209.423,180.247C209.361,180.534 209.342,180.83 209.365,181.133C209.388,181.437 209.453,181.721 209.558,181.985C209.663,182.249 209.81,182.463 210.001,182.627C210.191,182.79 210.419,182.872 210.683,182.872Z" style="fill-rule:nonzero;"/>
            <path d="M212.632,186.208C212.375,186.208 212.196,186.16 212.095,186.062C211.994,185.965 211.951,185.858 211.967,185.742C211.974,185.656 212.013,185.58 212.083,185.514C212.153,185.448 212.247,185.415 212.363,185.415C212.472,185.415 212.552,185.444 212.603,185.502C212.653,185.561 212.69,185.629 212.713,185.707C212.737,185.784 212.768,185.852 212.807,185.911C212.846,185.969 212.912,185.998 213.005,185.998C213.098,185.998 213.18,185.94 213.25,185.823C213.32,185.707 213.392,185.473 213.466,185.123C213.54,184.773 213.627,184.248 213.728,183.548L214.323,179.43C214.354,179.236 214.36,179.094 214.341,179.004C214.321,178.915 214.259,178.856 214.154,178.829C214.049,178.802 213.884,178.788 213.658,178.788C213.627,178.788 213.616,178.765 213.623,178.718C213.631,178.672 213.647,178.648 213.67,178.648C213.958,178.648 214.162,178.609 214.283,178.532C214.403,178.454 214.479,178.318 214.51,178.123C214.627,177.416 214.751,176.83 214.883,176.367C215.016,175.905 215.169,175.539 215.344,175.271C215.519,175.002 215.725,174.812 215.963,174.699C216.2,174.586 216.486,174.53 216.82,174.53C217.084,174.53 217.285,174.59 217.421,174.711C217.557,174.831 217.617,174.969 217.602,175.125C217.578,175.234 217.534,175.312 217.468,175.358C217.401,175.405 217.326,175.428 217.24,175.428C217.139,175.428 217.065,175.391 217.018,175.317C216.972,175.244 216.929,175.158 216.89,175.061C216.851,174.964 216.801,174.878 216.738,174.804C216.676,174.73 216.583,174.693 216.458,174.693C216.147,174.693 215.875,174.96 215.642,175.492C215.408,176.025 215.214,176.821 215.058,177.878L214.288,183.245C214.179,183.984 214.057,184.571 213.921,185.007C213.785,185.442 213.614,185.751 213.408,185.934C213.201,186.117 212.943,186.208 212.632,186.208ZM215.863,178.998C215.754,178.983 215.636,178.965 215.508,178.946C215.379,178.926 215.241,178.911 215.093,178.899C214.946,178.887 214.79,178.882 214.627,178.882L214.65,178.625C214.813,178.625 215.006,178.617 215.228,178.602C215.449,178.586 215.651,178.572 215.834,178.561C216.017,178.549 216.132,178.543 216.178,178.543C216.217,178.543 216.243,178.551 216.254,178.567C216.266,178.582 216.268,178.606 216.26,178.637C216.252,178.699 216.206,178.779 216.12,178.876C216.034,178.973 215.949,179.014 215.863,178.998Z" style="fill-rule:nonzero;"/>
            <path d="M220.693,183.152C220.367,183.152 220.096,183.076 219.882,182.924C219.669,182.772 219.509,182.572 219.404,182.323C219.299,182.074 219.239,181.802 219.223,181.507C219.208,181.211 219.231,180.923 219.293,180.643C219.402,180.146 219.589,179.727 219.853,179.389C220.118,179.051 220.421,178.792 220.763,178.613C221.106,178.434 221.44,178.345 221.767,178.345C221.953,178.345 222.124,178.374 222.28,178.432C222.436,178.491 222.556,178.571 222.642,178.672C222.727,178.773 222.762,178.886 222.747,179.01C222.739,179.096 222.71,179.173 222.659,179.243C222.609,179.313 222.529,179.348 222.42,179.348C222.334,179.348 222.259,179.319 222.192,179.261C222.126,179.202 222.074,179.119 222.035,179.01C222.012,178.924 221.949,178.831 221.848,178.73C221.747,178.629 221.592,178.578 221.382,178.578C221.102,178.578 220.863,178.658 220.664,178.817C220.466,178.977 220.306,179.185 220.186,179.442C220.065,179.698 219.974,179.982 219.912,180.293C219.834,180.721 219.82,181.126 219.871,181.507C219.921,181.888 220.05,182.197 220.256,182.434C220.462,182.671 220.752,182.79 221.125,182.79C221.413,182.79 221.658,182.73 221.86,182.609C222.062,182.489 222.249,182.358 222.42,182.218C222.443,182.203 222.471,182.211 222.502,182.242C222.533,182.273 222.537,182.3 222.513,182.323C222.187,182.611 221.874,182.821 221.574,182.953C221.275,183.086 220.981,183.152 220.693,183.152Z" style="fill-rule:nonzero;"/>
            <path d="M223.948,183.105C223.762,183.105 223.645,183.021 223.598,182.854C223.552,182.687 223.567,182.389 223.645,181.962L224.823,175.685C224.87,175.436 224.839,175.277 224.73,175.207C224.621,175.137 224.384,175.191 224.018,175.37C223.987,175.386 223.962,175.37 223.942,175.323C223.923,175.277 223.929,175.249 223.96,175.242L225.395,174.542C225.426,174.526 225.457,174.534 225.488,174.565C225.519,174.596 225.531,174.619 225.523,174.635L224.158,181.962C224.104,182.203 224.098,182.382 224.141,182.498C224.184,182.615 224.256,182.673 224.357,182.673C224.442,182.673 224.555,182.621 224.695,182.516C224.835,182.411 224.991,182.273 225.162,182.102C225.193,182.071 225.224,182.071 225.255,182.102C225.286,182.133 225.286,182.164 225.255,182.195C224.998,182.483 224.767,182.706 224.561,182.866C224.355,183.025 224.151,183.105 223.948,183.105Z" style="fill-rule:nonzero;"/>
            <path d="M226.573,183.152C226.324,183.152 226.136,183.058 226.008,182.872C225.879,182.685 225.842,182.374 225.897,181.938C225.959,181.511 226.093,181.085 226.299,180.661C226.505,180.237 226.754,179.85 227.046,179.5C227.338,179.15 227.649,178.87 227.979,178.66C228.31,178.45 228.627,178.345 228.93,178.345C229.07,178.345 229.206,178.37 229.338,178.421C229.471,178.471 229.583,178.555 229.677,178.672C229.77,178.788 229.824,178.94 229.84,179.127L229.397,178.835C229.482,178.819 229.587,178.755 229.712,178.642C229.836,178.53 229.91,178.399 229.933,178.252C229.949,178.228 229.978,178.221 230.021,178.228C230.064,178.236 230.081,178.248 230.073,178.263L229.397,181.962C229.319,182.436 229.381,182.673 229.583,182.673C229.677,182.673 229.793,182.621 229.933,182.516C230.073,182.411 230.229,182.273 230.4,182.102C230.423,182.078 230.451,182.082 230.482,182.113C230.513,182.144 230.517,182.172 230.493,182.195C230.237,182.483 230.005,182.706 229.799,182.866C229.593,183.025 229.389,183.105 229.187,183.105C229.008,183.105 228.897,183.021 228.854,182.854C228.811,182.687 228.829,182.389 228.907,181.962L229.187,180.328L229.373,180.13C229.132,180.706 228.854,181.223 228.539,181.682C228.224,182.141 227.898,182.5 227.559,182.761C227.221,183.021 226.892,183.152 226.573,183.152ZM226.912,182.65C227.137,182.65 227.373,182.562 227.618,182.387C227.863,182.212 228.1,181.981 228.329,181.693C228.559,181.406 228.759,181.087 228.93,180.737C229.101,180.387 229.222,180.041 229.292,179.698C229.354,179.426 229.325,179.193 229.204,178.998C229.084,178.804 228.872,178.711 228.568,178.718C228.288,178.726 227.999,178.854 227.699,179.103C227.4,179.352 227.135,179.685 226.906,180.101C226.676,180.517 226.523,180.989 226.445,181.518C226.391,181.884 226.398,182.164 226.468,182.358C226.538,182.553 226.686,182.65 226.912,182.65Z" style="fill-rule:nonzero;"/>
            <path d="M231.905,182.93L231.788,182.918C231.851,182.584 231.94,182.214 232.057,181.81C232.173,181.406 232.309,181.003 232.465,180.602C232.621,180.202 232.786,179.834 232.961,179.5C233.136,179.166 233.315,178.897 233.498,178.695C233.68,178.493 233.857,178.392 234.028,178.392C234.129,178.392 234.229,178.419 234.326,178.473C234.423,178.528 234.501,178.602 234.559,178.695C234.618,178.788 234.635,178.889 234.612,178.998C234.588,179.099 234.548,179.171 234.489,179.214C234.431,179.257 234.359,179.278 234.273,179.278C234.157,179.278 234.073,179.245 234.023,179.179C233.972,179.113 233.929,179.047 233.894,178.981C233.859,178.915 233.803,178.882 233.725,178.882C233.608,178.882 233.482,178.975 233.346,179.162C233.21,179.348 233.068,179.593 232.92,179.897C232.772,180.2 232.632,180.532 232.5,180.894C232.368,181.256 232.249,181.616 232.144,181.973C232.039,182.331 231.959,182.65 231.905,182.93ZM231.613,183.093C231.512,183.093 231.448,183.087 231.421,183.076C231.394,183.064 231.38,183.047 231.38,183.023C231.38,183 231.401,182.889 231.444,182.691C231.487,182.492 231.524,182.308 231.555,182.137L231.917,180.095C231.987,179.737 232.014,179.469 231.998,179.29C231.983,179.111 231.946,178.989 231.888,178.922C231.829,178.856 231.765,178.823 231.695,178.823C231.578,178.823 231.456,178.87 231.328,178.963C231.199,179.057 231.084,179.15 230.983,179.243C230.968,179.259 230.944,179.253 230.913,179.226C230.882,179.199 230.874,179.173 230.89,179.15C231.108,178.901 231.316,178.712 231.514,178.584C231.713,178.456 231.909,178.392 232.103,178.392C232.236,178.392 232.339,178.438 232.412,178.532C232.486,178.625 232.527,178.794 232.535,179.039C232.543,179.284 232.504,179.636 232.418,180.095L231.905,182.93C231.889,183.039 231.792,183.093 231.613,183.093Z" style="fill-rule:nonzero;"/>
            <path d="M235.883,183.105C235.712,183.105 235.597,183.027 235.539,182.872C235.481,182.716 235.494,182.413 235.58,181.962L236.058,179.535C236.152,179.061 236.086,178.823 235.86,178.823C235.767,178.823 235.646,178.87 235.498,178.963C235.351,179.057 235.191,179.193 235.02,179.372C234.997,179.403 234.968,179.401 234.933,179.366C234.898,179.331 234.896,179.302 234.927,179.278C235.191,178.983 235.43,178.761 235.644,178.613C235.858,178.466 236.062,178.392 236.257,178.392C236.443,178.392 236.56,178.475 236.607,178.642C236.653,178.81 236.634,179.107 236.548,179.535L236.082,181.962C236.035,182.203 236.031,182.382 236.07,182.498C236.109,182.615 236.179,182.673 236.28,182.673C236.366,182.673 236.482,182.627 236.63,182.533C236.778,182.44 236.937,182.304 237.108,182.125C237.139,182.094 237.171,182.096 237.202,182.131C237.233,182.166 237.233,182.195 237.202,182.218C236.945,182.514 236.71,182.736 236.496,182.883C236.282,183.031 236.078,183.105 235.883,183.105ZM236.607,176.968C236.459,176.968 236.344,176.929 236.262,176.852C236.181,176.774 236.14,176.661 236.14,176.513C236.14,176.381 236.181,176.276 236.262,176.198C236.344,176.121 236.459,176.082 236.607,176.082C236.754,176.082 236.867,176.121 236.945,176.198C237.023,176.276 237.062,176.381 237.062,176.513C237.062,176.817 236.91,176.968 236.607,176.968Z" style="fill-rule:nonzero;"/>
            <path d="M238.882,183.14C238.742,183.14 238.607,183.111 238.479,183.052C238.351,182.994 238.256,182.897 238.193,182.761C238.131,182.625 238.119,182.44 238.158,182.207L238.672,179.43C238.726,179.134 238.732,178.954 238.689,178.887C238.646,178.821 238.508,178.788 238.275,178.788C238.244,178.788 238.232,178.765 238.24,178.718C238.248,178.672 238.263,178.648 238.287,178.648C238.536,178.648 238.751,178.567 238.934,178.403C239.117,178.24 239.232,178.034 239.278,177.785C239.278,177.762 239.311,177.75 239.377,177.75C239.444,177.75 239.473,177.762 239.465,177.785L238.742,181.81C238.679,182.137 238.691,182.376 238.777,182.527C238.862,182.679 239.026,182.755 239.267,182.755C239.516,182.755 239.731,182.699 239.914,182.586C240.097,182.473 240.27,182.347 240.433,182.207C240.449,182.191 240.472,182.199 240.503,182.23C240.534,182.261 240.542,182.284 240.527,182.3C240.177,182.603 239.871,182.819 239.611,182.947C239.35,183.076 239.107,183.14 238.882,183.14ZM240.538,178.998C240.515,178.998 240.426,178.989 240.27,178.969C240.114,178.95 239.934,178.93 239.727,178.911C239.521,178.891 239.325,178.882 239.138,178.882L239.162,178.625C239.341,178.625 239.551,178.617 239.792,178.602C240.033,178.586 240.254,178.572 240.457,178.561C240.659,178.549 240.783,178.543 240.83,178.543C240.861,178.543 240.884,178.551 240.9,178.567C240.916,178.582 240.919,178.606 240.912,178.637C240.896,178.699 240.849,178.775 240.772,178.864C240.694,178.954 240.616,178.998 240.538,178.998Z" style="fill-rule:nonzero;"/>
            <path d="M240.69,186.278C240.566,186.278 240.463,186.243 240.381,186.173C240.299,186.103 240.266,185.994 240.282,185.847C240.328,185.676 240.464,185.59 240.69,185.59C240.853,185.59 241.019,185.576 241.186,185.549C241.353,185.522 241.514,185.477 241.67,185.415C241.826,185.353 241.966,185.279 242.09,185.193C242.261,185.077 242.459,184.876 242.685,184.592C242.911,184.309 243.148,183.982 243.397,183.612C243.646,183.243 243.883,182.862 244.108,182.469C244.334,182.076 244.528,181.705 244.692,181.355C244.855,181.005 244.964,180.713 245.018,180.48C245.065,180.27 245.084,180.07 245.077,179.879C245.069,179.689 245.046,179.516 245.007,179.36C244.968,179.204 244.933,179.07 244.902,178.957C244.871,178.845 244.855,178.761 244.855,178.707C244.855,178.613 244.886,178.536 244.948,178.473C245.011,178.411 245.096,178.38 245.205,178.38C245.361,178.38 245.466,178.436 245.52,178.549C245.574,178.662 245.602,178.804 245.602,178.975C245.602,179.263 245.541,179.605 245.421,180.002C245.3,180.398 245.133,180.828 244.919,181.291C244.705,181.754 244.462,182.218 244.19,182.685C243.918,183.152 243.628,183.601 243.321,184.032C243.014,184.464 242.702,184.847 242.387,185.182C242.072,185.516 241.769,185.782 241.477,185.981C241.186,186.179 240.923,186.278 240.69,186.278ZM243.093,184.26C243.14,182.549 243.041,181.223 242.796,180.282C242.551,179.341 242.199,178.87 241.74,178.87C241.639,178.87 241.534,178.901 241.425,178.963C241.316,179.026 241.219,179.142 241.133,179.313C241.118,179.344 241.089,179.354 241.046,179.342C241.003,179.331 240.986,179.309 240.993,179.278C241.141,178.983 241.295,178.761 241.454,178.613C241.614,178.466 241.798,178.392 242.008,178.392C242.288,178.392 242.535,178.526 242.749,178.794C242.963,179.062 243.138,179.43 243.274,179.897C243.41,180.363 243.506,180.902 243.56,181.512C243.614,182.123 243.622,182.774 243.583,183.467L243.093,184.26Z" style="fill-rule:nonzero;"/>
            <path d="M246.803,183.128C246.663,183.128 246.552,183.087 246.471,183.006C246.389,182.924 246.348,182.813 246.348,182.673C246.348,182.541 246.389,182.436 246.471,182.358C246.552,182.281 246.663,182.242 246.803,182.242C246.951,182.242 247.064,182.281 247.142,182.358C247.219,182.436 247.258,182.541 247.258,182.673C247.258,182.977 247.107,183.128 246.803,183.128Z" style="fill-rule:nonzero;"/>
        </g>
    </g>
</svg>
